<?xml version="1.0" encoding="UTF-8"?>
<!DOCTYPE svg PUBLIC "-//W3C//DTD SVG 1.1//EN" "http://www.w3.org/Graphics/SVG/1.1/DTD/svg11.dtd">
<svg xmlns="http://www.w3.org/2000/svg" version="1.1" width="850px" height="670px" style="shape-rendering:geometricPrecision; text-rendering:geometricPrecision; image-rendering:optimizeQuality; fill-rule:evenodd; clip-rule:evenodd" xmlns:xlink="http://www.w3.org/1999/xlink">
<g><path style="opacity:0" fill="#ffffff" d="M -0.5,-0.5 C 282.833,-0.5 566.167,-0.5 849.5,-0.5C 849.5,176.5 849.5,353.5 849.5,530.5C 566.167,530.5 282.833,530.5 -0.5,530.5C -0.5,353.5 -0.5,176.5 -0.5,-0.5 Z"/></g>
<g><path style="opacity:0.996" fill="#5638dc" d="M 431.5,32.5 C 432.391,33.1098 433.391,33.4431 434.5,33.5C 436.121,35.942 438.454,37.2753 441.5,37.5C 443.35,39.5716 445.683,40.9049 448.5,41.5C 450.35,43.5716 452.683,44.9049 455.5,45.5C 458.144,47.7226 461.144,49.3893 464.5,50.5C 466.121,52.942 468.454,54.2753 471.5,54.5C 473.662,56.8971 476.329,58.5638 479.5,59.5C 484.162,62.1646 488.829,64.8313 493.5,67.5C 493.973,68.9063 494.973,69.573 496.5,69.5C 498.643,71.0743 500.976,72.4077 503.5,73.5C 505.35,75.5716 507.683,76.9049 510.5,77.5C 511.671,78.3446 513.005,79.0113 514.5,79.5C 515.694,80.2719 516.694,81.2719 517.5,82.5C 519.03,84.3465 521.03,85.3465 523.5,85.5C 524.391,86.1098 525.391,86.4431 526.5,86.5C 527.514,87.6737 528.847,88.3404 530.5,88.5C 532.662,90.8971 535.329,92.5638 538.5,93.5C 539.167,93.8333 539.833,94.1667 540.5,94.5C 543.144,96.7226 546.144,98.3893 549.5,99.5C 549.973,100.906 550.973,101.573 552.5,101.5C 552.973,102.906 553.973,103.573 555.5,103.5C 556.514,104.674 557.847,105.34 559.5,105.5C 560.853,107.738 562.853,109.071 565.5,109.5C 566.671,110.345 568.005,111.011 569.5,111.5C 571.35,113.572 573.683,114.905 576.5,115.5C 576.5,115.833 576.5,116.167 576.5,116.5C 577.514,117.674 578.847,118.34 580.5,118.5C 582.05,119.441 583.716,120.107 585.5,120.5C 585.953,121.458 586.619,122.292 587.5,123C 590.067,124.401 592.733,125.568 595.5,126.5C 597.733,128.348 600.066,130.015 602.5,131.5C 603.514,132.674 604.847,133.34 606.5,133.5C 608.167,134.167 609.833,134.833 611.5,135.5C 611.973,136.906 612.973,137.573 614.5,137.5C 616.03,139.346 618.03,140.346 620.5,140.5C 620.5,141.167 620.833,141.5 621.5,141.5C 622.899,142.89 624.566,143.89 626.5,144.5C 627.494,224.459 627.828,304.459 627.5,384.5C 625.103,386.53 622.437,388.197 619.5,389.5C 617.821,389.285 616.821,389.952 616.5,391.5C 616.167,391.5 615.833,391.5 615.5,391.5C 613.034,392.298 611.034,393.631 609.5,395.5C 607.62,395.229 606.287,395.896 605.5,397.5C 605.5,398.167 605.167,398.5 604.5,398.5C 602.456,399.508 600.456,400.508 598.5,401.5C 598.5,401.833 598.5,402.167 598.5,402.5C 596.517,402.157 595.183,402.824 594.5,404.5C 592.011,404.241 590.344,405.241 589.5,407.5C 587.326,407.75 585.659,408.75 584.5,410.5C 584.167,410.5 583.833,410.5 583.5,410.5C 581.847,410.66 580.514,411.326 579.5,412.5C 578.448,412.351 577.448,412.517 576.5,413C 574.681,413.74 573.348,414.907 572.5,416.5C 570.545,416.799 569.211,417.799 568.5,419.5C 566.973,419.427 565.973,420.094 565.5,421.5C 563.326,421.75 561.659,422.75 560.5,424.5C 558.046,425.227 555.713,426.227 553.5,427.5C 551.973,427.427 550.973,428.094 550.5,429.5C 549.29,429.932 548.29,430.599 547.5,431.5C 544.563,432.472 541.897,433.805 539.5,435.5C 539.5,435.833 539.5,436.167 539.5,436.5C 537.517,436.157 536.183,436.824 535.5,438.5C 534.29,438.932 533.29,439.599 532.5,440.5C 530.517,440.157 529.183,440.824 528.5,442.5C 527.167,443.167 525.833,443.833 524.5,444.5C 522.821,444.285 521.821,444.952 521.5,446.5C 519.77,447.026 518.436,448.026 517.5,449.5C 515.517,449.157 514.183,449.824 513.5,451.5C 511.517,451.157 510.183,451.824 509.5,453.5C 509.167,453.5 508.833,453.5 508.5,453.5C 506.034,454.298 504.034,455.631 502.5,457.5C 500.973,457.427 499.973,458.094 499.5,459.5C 499.167,459.5 498.833,459.5 498.5,459.5C 497.448,459.351 496.448,459.517 495.5,460C 493.681,460.74 492.348,461.907 491.5,463.5C 490.29,463.932 489.29,464.599 488.5,465.5C 487.005,465.989 485.671,466.655 484.5,467.5C 483.833,468.167 483.167,468.833 482.5,469.5C 479.454,469.725 477.121,471.058 475.5,473.5C 474.391,473.557 473.391,473.89 472.5,474.5C 470.821,474.285 469.821,474.952 469.5,476.5C 469.167,476.5 468.833,476.5 468.5,476.5C 465.446,476.354 463.446,477.687 462.5,480.5C 462.167,480.5 461.833,480.5 461.5,480.5C 459.973,480.427 458.973,481.094 458.5,482.5C 458.5,482.833 458.5,483.167 458.5,483.5C 456.446,483.365 454.779,484.032 453.5,485.5C 451.034,486.298 449.034,487.631 447.5,489.5C 445.517,489.157 444.183,489.824 443.5,491.5C 442.448,491.351 441.448,491.517 440.5,492C 438.681,492.74 437.348,493.907 436.5,495.5C 435.29,495.932 434.29,496.599 433.5,497.5C 431.055,498.312 428.722,499.312 426.5,500.5C 423.549,500.713 420.882,500.046 418.5,498.5C 417.391,498.443 416.391,498.11 415.5,497.5C 412.856,495.277 409.856,493.611 406.5,492.5C 405.41,491.143 404.076,490.143 402.5,489.5C 400.973,486.932 398.639,485.599 395.5,485.5C 394.833,485.167 394.167,484.833 393.5,484.5C 391.955,483.36 390.288,482.36 388.5,481.5C 388.027,480.094 387.027,479.427 385.5,479.5C 385.027,478.094 384.027,477.427 382.5,477.5C 380.456,476.492 378.456,475.492 376.5,474.5C 374.973,471.932 372.639,470.599 369.5,470.5C 367.289,469.877 365.289,468.877 363.5,467.5C 362.71,466.599 361.71,465.932 360.5,465.5C 360.167,465.5 359.833,465.5 359.5,465.5C 358.455,464.122 357.122,463.122 355.5,462.5C 355.027,461.094 354.027,460.427 352.5,460.5C 352.027,459.094 351.027,458.427 349.5,458.5C 346.144,457.389 343.144,455.723 340.5,453.5C 340.631,452.624 340.298,451.957 339.5,451.5C 336.441,450.153 333.441,448.82 330.5,447.5C 329.167,446.833 327.833,446.167 326.5,445.5C 326.027,444.094 325.027,443.427 323.5,443.5C 322.508,443.672 321.842,443.338 321.5,442.5C 319.973,439.932 317.639,438.599 314.5,438.5C 312.289,437.877 310.289,436.877 308.5,435.5C 308.027,434.094 307.027,433.427 305.5,433.5C 304.145,430.482 301.812,429.149 298.5,429.5C 298.158,428.662 297.492,428.328 296.5,428.5C 294.746,425.443 292.079,423.776 288.5,423.5C 286.435,423.047 284.768,422.047 283.5,420.5C 281.168,417.728 278.168,416.061 274.5,415.5C 273.833,415.167 273.167,414.833 272.5,414.5C 270.955,413.36 269.288,412.36 267.5,411.5C 267.027,410.094 266.027,409.427 264.5,409.5C 261.299,408.069 258.299,406.403 255.5,404.5C 253.973,401.932 251.639,400.599 248.5,400.5C 247.267,398.204 245.267,396.87 242.5,396.5C 241.609,395.89 240.609,395.557 239.5,395.5C 239.158,394.662 238.492,394.328 237.5,394.5C 237.027,393.094 236.027,392.427 234.5,392.5C 230.469,390.154 226.469,387.82 222.5,385.5C 221.506,305.874 221.172,226.208 221.5,146.5C 222.338,146.158 222.672,145.492 222.5,144.5C 223.671,143.655 225.005,142.989 226.5,142.5C 228.288,142.785 229.955,142.452 231.5,141.5C 236.43,139.215 240.764,136.215 244.5,132.5C 244.833,131.833 245.167,131.167 245.5,130.5C 246.167,130.5 246.833,130.5 247.5,130.5C 248.995,130.011 250.329,129.345 251.5,128.5C 253.585,126.116 256.252,124.449 259.5,123.5C 262.639,123.401 264.973,122.068 266.5,119.5C 269.24,117.44 272.24,115.774 275.5,114.5C 278.1,113.532 280.434,112.199 282.5,110.5C 285.172,110.052 287.172,108.719 288.5,106.5C 290.989,106.759 292.656,105.759 293.5,103.5C 296.167,102.167 298.833,100.833 301.5,99.5C 303.288,98.6396 304.955,97.6396 306.5,96.5C 309.061,95.455 311.394,94.1217 313.5,92.5C 316.147,92.0713 318.147,90.7379 319.5,88.5C 321.434,87.8897 323.101,86.8897 324.5,85.5C 325.833,84.8333 327.167,84.1667 328.5,83.5C 329.71,83.0679 330.71,82.4013 331.5,81.5C 333.027,81.573 334.027,80.9063 334.5,79.5C 334.833,79.5 335.167,79.5 335.5,79.5C 336.995,79.0113 338.329,78.3446 339.5,77.5C 339.821,75.9519 340.821,75.2852 342.5,75.5C 343.167,75.5 343.5,75.1667 343.5,74.5C 346.313,74.9754 348.313,73.9754 349.5,71.5C 351.23,70.9744 352.564,69.9744 353.5,68.5C 354.167,68.5 354.5,68.1667 354.5,67.5C 357.313,67.9754 359.313,66.9754 360.5,64.5C 360.833,64.5 361.167,64.5 361.5,64.5C 362.391,63.8902 363.391,63.5569 364.5,63.5C 366.795,62.8645 368.461,61.5311 369.5,59.5C 373.168,58.9391 376.168,57.2724 378.5,54.5C 378.833,54.5 379.167,54.5 379.5,54.5C 383.436,52.5584 387.103,50.2251 390.5,47.5C 391.605,46.3995 392.938,45.7329 394.5,45.5C 400.35,43.2937 405.683,40.2937 410.5,36.5C 411.29,35.5987 412.29,34.9321 413.5,34.5C 414.71,34.0679 415.71,33.4013 416.5,32.5C 417.609,32.4431 418.609,32.1098 419.5,31.5C 421.126,31.0617 422.793,30.7284 424.5,30.5C 426.841,31.1822 429.174,31.8489 431.5,32.5 Z"/></g>
<g><path style="opacity:0.769" fill="#a796eb" d="M 419.5,30.5 C 419.5,30.8333 419.5,31.1667 419.5,31.5C 418.609,32.1098 417.609,32.4431 416.5,32.5C 416.973,31.0937 417.973,30.427 419.5,30.5 Z"/></g>
<g><path style="opacity:0.847" fill="#7c63e3" d="M 431.5,31.5 C 431.5,31.8333 431.5,32.1667 431.5,32.5C 429.174,31.8489 426.841,31.1822 424.5,30.5C 422.793,30.7284 421.126,31.0617 419.5,31.5C 419.5,31.1667 419.5,30.8333 419.5,30.5C 421.033,29.5691 422.7,28.9024 424.5,28.5C 426.996,29.2515 429.33,30.2515 431.5,31.5 Z"/></g>
<g><path style="opacity:0.816" fill="#bdb1f1" d="M 416.5,32.5 C 415.71,33.4013 414.71,34.0679 413.5,34.5C 413.821,32.9519 414.821,32.2852 416.5,32.5 Z"/></g>
<g><path style="opacity:0.761" fill="#bcb0f0" d="M 431.5,32.5 C 431.5,32.1667 431.5,31.8333 431.5,31.5C 433.027,31.427 434.027,32.0937 434.5,33.5C 433.391,33.4431 432.391,33.1098 431.5,32.5 Z"/></g>
<g><path style="opacity:0.725" fill="#baadef" d="M 434.5,33.5 C 437.1,34.4676 439.434,35.8009 441.5,37.5C 438.454,37.2753 436.121,35.942 434.5,33.5 Z"/></g>
<g><path style="opacity:0.824" fill="#d2c9f4" d="M 441.5,37.5 C 444.639,37.5988 446.973,38.9321 448.5,41.5C 445.683,40.9049 443.35,39.5716 441.5,37.5 Z"/></g>
<g><path style="opacity:0.776" fill="#8d76e6" d="M 410.5,36.5 C 405.683,40.2937 400.35,43.2937 394.5,45.5C 399.283,41.7619 404.616,38.7619 410.5,36.5 Z"/></g>
<g><path style="opacity:0.855" fill="#d5cdf5" d="M 448.5,41.5 C 451.639,41.5988 453.973,42.9321 455.5,45.5C 452.683,44.9049 450.35,43.5716 448.5,41.5 Z"/></g>
<g><path style="opacity:0.855" fill="#836ce5" d="M 420.5,46.5 C 426.094,44.4537 430.76,45.7871 434.5,50.5C 432.685,49.3702 430.685,48.7036 428.5,48.5C 428.389,47.8826 428.056,47.3826 427.5,47C 425.19,46.5034 422.857,46.3367 420.5,46.5 Z"/></g>
<g><path style="opacity:0.871" fill="#d4ccf5" d="M 455.5,45.5 C 459.168,46.0609 462.168,47.7276 464.5,50.5C 461.144,49.3893 458.144,47.7226 455.5,45.5 Z"/></g>
<g><path style="opacity:0.999" fill="#fafafb" d="M 428.5,48.5 C 430.685,48.7036 432.685,49.3702 434.5,50.5C 434.973,51.9063 435.973,52.573 437.5,52.5C 439.35,54.5716 441.683,55.9049 444.5,56.5C 446.35,58.5716 448.683,59.9049 451.5,60.5C 451.842,61.3382 452.508,61.6716 453.5,61.5C 453.5,62.5 453.5,63.5 453.5,64.5C 455.216,64.6287 456.883,64.962 458.5,65.5C 459.167,65.5 459.833,65.5 460.5,65.5C 463.689,68.2635 467.356,70.2635 471.5,71.5C 472.262,73.2624 473.596,74.2624 475.5,74.5C 475.973,75.9063 476.973,76.573 478.5,76.5C 480.289,77.8772 482.289,78.8772 484.5,79.5C 485.694,80.2719 486.694,81.2719 487.5,82.5C 489.03,84.3465 491.03,85.3465 493.5,85.5C 494.391,86.1098 495.391,86.4431 496.5,86.5C 497.29,87.4013 498.29,88.0679 499.5,88.5C 501.35,90.5716 503.683,91.9049 506.5,92.5C 507.671,93.3446 509.005,94.0113 510.5,94.5C 513.144,96.7226 516.144,98.3893 519.5,99.5C 519.973,100.906 520.973,101.573 522.5,101.5C 522.973,102.906 523.973,103.573 525.5,103.5C 528.144,105.723 531.144,107.389 534.5,108.5C 535.5,109.167 536.5,109.833 537.5,110.5C 537.5,111.5 537.5,112.5 537.5,113.5C 541.9,114.967 546.233,116.634 550.5,118.5C 552.05,119.441 553.716,120.107 555.5,120.5C 555.973,121.906 556.973,122.573 558.5,122.5C 560.35,124.572 562.683,125.905 565.5,126.5C 566.899,127.89 568.566,128.89 570.5,129.5C 570.5,130.5 570.5,131.5 570.5,132.5C 572.565,132.517 574.565,132.85 576.5,133.5C 578.167,134.167 579.833,134.833 581.5,135.5C 581.973,136.906 582.973,137.573 584.5,137.5C 586.552,140.032 589.218,141.699 592.5,142.5C 594.289,143.877 596.289,144.877 598.5,145.5C 598.842,146.338 599.508,146.672 600.5,146.5C 600.5,147.5 600.5,148.5 600.5,149.5C 602.216,149.629 603.883,149.962 605.5,150.5C 607.434,151.11 609.101,152.11 610.5,153.5C 612.487,227.354 613.153,301.354 612.5,375.5C 610.161,377.175 607.827,378.842 605.5,380.5C 602.939,381.545 600.606,382.878 598.5,384.5C 596.06,385.238 594.06,386.571 592.5,388.5C 591.391,388.557 590.391,388.89 589.5,389.5C 587.973,389.427 586.973,390.094 586.5,391.5C 584.821,391.285 583.821,391.952 583.5,393.5C 583.167,393.5 582.833,393.5 582.5,393.5C 580.821,393.285 579.821,393.952 579.5,395.5C 577.668,396.248 576.001,397.248 574.5,398.5C 570.712,399.92 567.378,401.92 564.5,404.5C 562.973,404.427 561.973,405.094 561.5,406.5C 559.446,406.365 557.779,407.032 556.5,408.5C 554.821,408.285 553.821,408.952 553.5,410.5C 552.167,411.167 550.833,411.833 549.5,412.5C 546.613,413.62 543.613,414.62 540.5,415.5C 539.388,416.265 538.721,417.265 538.5,418.5C 537.833,419.167 537.167,419.833 536.5,420.5C 535.833,420.5 535.5,420.833 535.5,421.5C 533.517,421.157 532.183,421.824 531.5,423.5C 531.167,423.5 530.833,423.5 530.5,423.5C 528.456,424.508 526.456,425.508 524.5,426.5C 523.694,427.728 522.694,428.728 521.5,429.5C 517.79,430.95 514.457,432.95 511.5,435.5C 508.22,436.807 505.22,438.473 502.5,440.5C 500.517,440.157 499.183,440.824 498.5,442.5C 497.167,443.167 495.833,443.833 494.5,444.5C 492.067,444.273 490.401,445.273 489.5,447.5C 487.712,448.36 486.045,449.36 484.5,450.5C 483.609,451.11 482.609,451.443 481.5,451.5C 478.454,451.183 476.787,452.516 476.5,455.5C 474.011,455.241 472.344,456.241 471.5,458.5C 469.278,459.688 466.945,460.688 464.5,461.5C 460.575,462.579 457.242,464.579 454.5,467.5C 454.5,468.167 454.167,468.5 453.5,468.5C 450.356,469.433 447.689,471.1 445.5,473.5C 444.391,473.557 443.391,473.89 442.5,474.5C 440.821,474.285 439.821,474.952 439.5,476.5C 439.167,476.5 438.833,476.5 438.5,476.5C 436.973,476.427 435.973,477.094 435.5,478.5C 433.821,478.285 432.821,478.952 432.5,480.5C 430.483,481.529 428.483,482.529 426.5,483.5C 422.709,482.569 419.043,481.236 415.5,479.5C 413.168,476.728 410.168,475.061 406.5,474.5C 404.973,471.932 402.639,470.599 399.5,470.5C 398.817,468.824 397.483,468.157 395.5,468.5C 393.966,466.631 391.966,465.298 389.5,464.5C 388.167,463.833 386.833,463.167 385.5,462.5C 385.027,461.094 384.027,460.427 382.5,460.5C 380.973,460.573 379.973,459.906 379.5,458.5C 377.168,455.728 374.168,454.061 370.5,453.5C 369.833,453.167 369.167,452.833 368.5,452.5C 366.168,449.728 363.168,448.061 359.5,447.5C 357.746,444.443 355.079,442.776 351.5,442.5C 349.973,439.932 347.639,438.599 344.5,438.5C 343.005,438.011 341.671,437.345 340.5,436.5C 338.966,434.631 336.966,433.298 334.5,432.5C 332.847,432.34 331.514,431.674 330.5,430.5C 330.027,429.094 329.027,428.427 327.5,428.5C 326.508,428.672 325.842,428.338 325.5,427.5C 323.973,424.932 321.639,423.599 318.5,423.5C 318.279,422.265 317.612,421.265 316.5,420.5C 311.361,418.349 306.361,416.015 301.5,413.5C 300.508,413.672 299.842,413.338 299.5,412.5C 299.631,411.624 299.298,410.957 298.5,410.5C 294.276,408.117 289.943,406.117 285.5,404.5C 283.973,401.932 281.639,400.599 278.5,400.5C 277.358,398.567 275.692,397.067 273.5,396C 269.587,393.868 265.587,392.034 261.5,390.5C 260.508,390.672 259.842,390.338 259.5,389.5C 257.973,386.932 255.639,385.599 252.5,385.5C 251.412,384 250.079,382.667 248.5,381.5C 247.311,380.571 245.978,380.238 244.5,380.5C 242.151,378.011 239.318,376.011 236,374.5C 235.333,301.5 235.333,228.5 236,155.5C 236.717,154.956 237.217,154.289 237.5,153.5C 237.842,152.662 238.508,152.328 239.5,152.5C 241.404,152.262 242.738,151.262 243.5,149.5C 244.391,148.89 245.391,148.557 246.5,148.5C 249.554,148.646 251.554,147.313 252.5,144.5C 255.639,144.401 257.973,143.068 259.5,140.5C 261.791,139.235 264.125,137.902 266.5,136.5C 269.317,135.905 271.65,134.572 273.5,132.5C 274.995,132.011 276.329,131.345 277.5,130.5C 280.147,130.071 282.147,128.738 283.5,126.5C 283.833,126.5 284.167,126.5 284.5,126.5C 288.454,125.417 291.787,123.417 294.5,120.5C 296.404,120.262 297.738,119.262 298.5,117.5C 298.833,117.5 299.167,117.5 299.5,117.5C 300.71,117.068 301.71,116.401 302.5,115.5C 303.391,114.89 304.391,114.557 305.5,114.5C 309.326,113.581 312.326,111.581 314.5,108.5C 316.483,108.843 317.817,108.176 318.5,106.5C 319.29,105.599 320.29,104.932 321.5,104.5C 324.317,103.905 326.65,102.572 328.5,100.5C 328.833,100.5 329.167,100.5 329.5,100.5C 331.027,100.573 332.027,99.9063 332.5,98.5C 335.147,98.0713 337.147,96.7379 338.5,94.5C 338.833,94.5 339.167,94.5 339.5,94.5C 340.995,94.0113 342.329,93.3446 343.5,92.5C 344.659,90.7497 346.326,89.7497 348.5,89.5C 350.989,89.7593 352.656,88.7593 353.5,86.5C 355.404,86.2624 356.738,85.2624 357.5,83.5C 358.609,83.4431 359.609,83.1098 360.5,82.5C 362.404,82.2624 363.738,81.2624 364.5,79.5C 364.833,79.5 365.167,79.5 365.5,79.5C 366.995,79.0113 368.329,78.3446 369.5,77.5C 369.5,77.1667 369.5,76.8333 369.5,76.5C 375.365,75.8828 380.032,73.2161 383.5,68.5C 384.833,67.8333 386.167,67.1667 387.5,66.5C 388.71,66.0679 389.71,65.4013 390.5,64.5C 390.833,64.5 391.167,64.5 391.5,64.5C 392.71,64.0679 393.71,63.4013 394.5,62.5C 395.605,61.3995 396.938,60.7329 398.5,60.5C 399.995,60.0113 401.329,59.3446 402.5,58.5C 402.5,57.8333 402.833,57.5 403.5,57.5C 404.552,57.6495 405.552,57.4828 406.5,57C 408.319,56.2597 409.652,55.0931 410.5,53.5C 411.965,52.2632 413.632,51.2632 415.5,50.5C 416.609,50.4431 417.609,50.1098 418.5,49.5C 420.954,49.6795 423.121,49.0128 425,47.5C 426.138,47.9891 427.305,48.3225 428.5,48.5 Z"/></g>
<g><path style="opacity:0.725" fill="#b0a0ed" d="M 390.5,47.5 C 387.103,50.2251 383.436,52.5584 379.5,54.5C 379.414,53.5041 379.748,52.6708 380.5,52C 383.747,50.2078 387.081,48.7078 390.5,47.5 Z"/></g>
<g><path style="opacity:0.737" fill="#9f8dea" d="M 419.5,47.5 C 419.167,48.1667 418.833,48.8333 418.5,49.5C 417.609,50.1098 416.609,50.4431 415.5,50.5C 416.262,48.7376 417.596,47.7376 419.5,47.5 Z"/></g>
<g><path style="opacity:0.933" fill="#e2ddf7" d="M 420.5,46.5 C 422.857,46.3367 425.19,46.5034 427.5,47C 428.056,47.3826 428.389,47.8826 428.5,48.5C 427.305,48.3225 426.138,47.9891 425,47.5C 423.121,49.0128 420.954,49.6795 418.5,49.5C 418.833,48.8333 419.167,48.1667 419.5,47.5C 420.167,47.5 420.5,47.1667 420.5,46.5 Z"/></g>
<g><path style="opacity:0.804" fill="#8a75e6" d="M 434.5,50.5 C 436.027,50.427 437.027,51.0937 437.5,52.5C 435.973,52.573 434.973,51.9063 434.5,50.5 Z"/></g>
<g><path style="opacity:0.878" fill="#7e63e4" d="M 437.5,52.5 C 440.639,52.5988 442.973,53.9321 444.5,56.5C 441.683,55.9049 439.35,54.5716 437.5,52.5 Z"/></g>
<g><path style="opacity:0.824" fill="#d6cdf5" d="M 464.5,50.5 C 467.621,50.7361 469.954,52.0695 471.5,54.5C 468.454,54.2753 466.121,52.942 464.5,50.5 Z"/></g>
<g><path style="opacity:0.698" fill="#c7bcf1" d="M 410.5,53.5 C 409.652,55.0931 408.319,56.2597 406.5,57C 405.552,57.4828 404.552,57.6495 403.5,57.5C 405.35,55.4284 407.683,54.0951 410.5,53.5 Z"/></g>
<g><path style="opacity:0.824" fill="#8d77e7" d="M 378.5,54.5 C 376.168,57.2724 373.168,58.9391 369.5,59.5C 372.207,57.3649 375.207,55.6982 378.5,54.5 Z"/></g>
<g><path style="opacity:0.871" fill="#7c62e3" d="M 444.5,56.5 C 447.639,56.5988 449.973,57.9321 451.5,60.5C 448.683,59.9049 446.35,58.5716 444.5,56.5 Z"/></g>
<g><path style="opacity:0.776" fill="#c2b6f1" d="M 471.5,54.5 C 474.671,55.4362 477.338,57.1029 479.5,59.5C 476.329,58.5638 473.662,56.8971 471.5,54.5 Z"/></g>
<g><path style="opacity:0.812" fill="#b0a0ee" d="M 402.5,58.5 C 401.329,59.3446 399.995,60.0113 398.5,60.5C 399.183,58.8235 400.517,58.1568 402.5,58.5 Z"/></g>
<g><path style="opacity:0.808" fill="#baaef0" d="M 364.5,62.5 C 364.5,62.8333 364.5,63.1667 364.5,63.5C 363.391,63.5569 362.391,63.8902 361.5,64.5C 361.821,62.9519 362.821,62.2852 364.5,62.5 Z"/></g>
<g><path style="opacity:0.792" fill="#7b62e3" d="M 369.5,59.5 C 368.461,61.5311 366.795,62.8645 364.5,63.5C 364.5,63.1667 364.5,62.8333 364.5,62.5C 366.001,61.2485 367.668,60.2485 369.5,59.5 Z"/></g>
<g><path style="opacity:0.827" fill="#9480e8" d="M 394.5,62.5 C 393.71,63.4013 392.71,64.0679 391.5,64.5C 391.821,62.9519 392.821,62.2852 394.5,62.5 Z"/></g>
<g><path style="opacity:0.886" fill="#d5cdf4" d="M 453.5,61.5 C 455.389,62.604 457.055,63.9373 458.5,65.5C 456.883,64.962 455.216,64.6287 453.5,64.5C 453.5,63.5 453.5,62.5 453.5,61.5 Z"/></g>
<g><path style="opacity:0.855" fill="#836ae5" d="M 390.5,64.5 C 389.71,65.4013 388.71,66.0679 387.5,66.5C 387.821,64.9519 388.821,64.2852 390.5,64.5 Z"/></g>
<g><path style="opacity:0.769" fill="#af9fed" d="M 360.5,64.5 C 359.313,66.9754 357.313,67.9754 354.5,67.5C 356.456,66.5082 358.456,65.5082 360.5,64.5 Z"/></g>
<g><path style="opacity:0.882" fill="#755ae2" d="M 460.5,65.5 C 464.945,66.2197 468.612,68.2197 471.5,71.5C 467.356,70.2635 463.689,68.2635 460.5,65.5 Z"/></g>
<g><path style="opacity:0.725" fill="#b3a4ed" d="M 493.5,67.5 C 495.027,67.427 496.027,68.0937 496.5,69.5C 494.973,69.573 493.973,68.9063 493.5,67.5 Z"/></g>
<g><path style="opacity:0.796" fill="#856de5" d="M 471.5,71.5 C 473.404,71.7376 474.738,72.7376 475.5,74.5C 473.596,74.2624 472.262,73.2624 471.5,71.5 Z"/></g>
<g><path style="opacity:0.875" fill="#dcd5f6" d="M 353.5,68.5 C 352.564,69.9744 351.23,70.9744 349.5,71.5C 347.456,72.5082 345.456,73.5082 343.5,74.5C 343.5,75.1667 343.167,75.5 342.5,75.5C 342.5,74.5 342.5,73.5 342.5,72.5C 346.06,70.887 349.727,69.5536 353.5,68.5 Z"/></g>
<g><path style="opacity:0.82" fill="#856ce5" d="M 349.5,71.5 C 348.313,73.9754 346.313,74.9754 343.5,74.5C 345.456,73.5082 347.456,72.5082 349.5,71.5 Z"/></g>
<g><path style="opacity:0.835" fill="#c3b7f1" d="M 383.5,68.5 C 380.032,73.2161 375.365,75.8828 369.5,76.5C 374.379,74.3064 379.046,71.6397 383.5,68.5 Z"/></g>
<g><path style="opacity:0.812" fill="#c8bcf2" d="M 503.5,73.5 C 506.639,73.5988 508.973,74.9321 510.5,77.5C 507.683,76.9049 505.35,75.5716 503.5,73.5 Z"/></g>
<g><path style="opacity:0.8" fill="#a28feb" d="M 475.5,74.5 C 477.027,74.427 478.027,75.0937 478.5,76.5C 476.973,76.573 475.973,75.9063 475.5,74.5 Z"/></g>
<g><path style="opacity:0.827" fill="#a492eb" d="M 339.5,77.5 C 338.329,78.3446 336.995,79.0113 335.5,79.5C 336.183,77.8235 337.517,77.1568 339.5,77.5 Z"/></g>
<g><path style="opacity:0.796" fill="#aa99ec" d="M 369.5,77.5 C 368.329,78.3446 366.995,79.0113 365.5,79.5C 366.183,77.8235 367.517,77.1568 369.5,77.5 Z"/></g>
<g><path style="opacity:0.882" fill="#785fe2" d="M 484.5,79.5 C 487.639,79.5988 489.973,80.9321 491.5,83.5C 490.292,82.7659 488.959,82.4326 487.5,82.5C 486.694,81.2719 485.694,80.2719 484.5,79.5 Z"/></g>
<g><path style="opacity:0.882" fill="#d6cff4" d="M 514.5,79.5 C 518.168,80.0609 521.168,81.7276 523.5,84.5C 521.685,83.3702 519.685,82.7036 517.5,82.5C 516.694,81.2719 515.694,80.2719 514.5,79.5 Z"/></g>
<g><path style="opacity:0.741" fill="#aa9aec" d="M 334.5,79.5 C 334.027,80.9063 333.027,81.573 331.5,81.5C 331.973,80.0937 332.973,79.427 334.5,79.5 Z"/></g>
<g><path style="opacity:0.718" fill="#a998ed" d="M 364.5,79.5 C 363.738,81.2624 362.404,82.2624 360.5,82.5C 361.262,80.7376 362.596,79.7376 364.5,79.5 Z"/></g>
<g><path style="opacity:0.835" fill="#beb1f0" d="M 331.5,81.5 C 330.71,82.4013 329.71,83.0679 328.5,83.5C 328.821,81.9519 329.821,81.2852 331.5,81.5 Z"/></g>
<g><path style="opacity:0.784" fill="#d1c9f4" d="M 487.5,82.5 C 488.959,82.4326 490.292,82.7659 491.5,83.5C 491.842,84.3382 492.508,84.6716 493.5,84.5C 493.5,84.8333 493.5,85.1667 493.5,85.5C 491.03,85.3465 489.03,84.3465 487.5,82.5 Z"/></g>
<g><path style="opacity:0.82" fill="#7c63e4" d="M 517.5,82.5 C 519.685,82.7036 521.685,83.3702 523.5,84.5C 523.5,84.8333 523.5,85.1667 523.5,85.5C 521.03,85.3465 519.03,84.3465 517.5,82.5 Z"/></g>
<g><path style="opacity:0.725" fill="#9c88e9" d="M 357.5,83.5 C 356.738,85.2624 355.404,86.2624 353.5,86.5C 352.833,86.5 352.167,86.5 351.5,86.5C 353.456,85.5082 355.456,84.5082 357.5,83.5 Z"/></g>
<g><path style="opacity:0.765" fill="#8b74e6" d="M 493.5,85.5 C 493.5,85.1667 493.5,84.8333 493.5,84.5C 495.027,84.427 496.027,85.0937 496.5,86.5C 495.391,86.4431 494.391,86.1098 493.5,85.5 Z"/></g>
<g><path style="opacity:0.753" fill="#c4b9f1" d="M 523.5,85.5 C 523.5,85.1667 523.5,84.8333 523.5,84.5C 525.027,84.427 526.027,85.0937 526.5,86.5C 525.391,86.4431 524.391,86.1098 523.5,85.5 Z"/></g>
<g><path style="opacity:0.741" fill="#baaeef" d="M 324.5,85.5 C 323.101,86.8897 321.434,87.8897 319.5,88.5C 320.401,86.2729 322.067,85.2729 324.5,85.5 Z"/></g>
<g><path style="opacity:0.878" fill="#d5cdf4" d="M 351.5,86.5 C 352.167,86.5 352.833,86.5 353.5,86.5C 352.656,88.7593 350.989,89.7593 348.5,89.5C 349.694,88.7281 350.694,87.7281 351.5,86.5 Z"/></g>
<g><path style="opacity:0.843" fill="#8870e6" d="M 499.5,88.5 C 502.639,88.5988 504.973,89.9321 506.5,92.5C 503.683,91.9049 501.35,90.5716 499.5,88.5 Z"/></g>
<g><path style="opacity:0.808" fill="#947fe8" d="M 319.5,88.5 C 318.147,90.7379 316.147,92.0713 313.5,92.5C 315.034,90.631 317.034,89.2977 319.5,88.5 Z"/></g>
<g><path style="opacity:0.741" fill="#cabff3" d="M 530.5,88.5 C 533.671,89.4362 536.338,91.1029 538.5,93.5C 535.329,92.5638 532.662,90.8971 530.5,88.5 Z"/></g>
<g><path style="opacity:0.82" fill="#ac9bed" d="M 343.5,92.5 C 342.329,93.3446 340.995,94.0113 339.5,94.5C 340.183,92.8235 341.517,92.1568 343.5,92.5 Z"/></g>
<g><path style="opacity:0.796" fill="#9b87e9" d="M 313.5,92.5 C 311.394,94.1217 309.061,95.455 306.5,96.5C 308.027,93.9321 310.361,92.5988 313.5,92.5 Z"/></g>
<g><path style="opacity:0.898" fill="#7b61e3" d="M 510.5,94.5 C 514.168,95.0609 517.168,96.7276 519.5,99.5C 516.144,98.3893 513.144,96.7226 510.5,94.5 Z"/></g>
<g><path style="opacity:0.875" fill="#d6cff5" d="M 540.5,94.5 C 544.168,95.0609 547.168,96.7276 549.5,99.5C 546.144,98.3893 543.144,96.7226 540.5,94.5 Z"/></g>
<g><path style="opacity:0.769" fill="#a08dea" d="M 306.5,96.5 C 304.955,97.6396 303.288,98.6396 301.5,99.5C 301.5,99.1667 301.5,98.8333 301.5,98.5C 302.779,97.032 304.446,96.3653 306.5,96.5 Z"/></g>
<g><path style="opacity:0.761" fill="#a694eb" d="M 338.5,94.5 C 337.147,96.7379 335.147,98.0713 332.5,98.5C 334.034,96.631 336.034,95.2977 338.5,94.5 Z"/></g>
<g><path style="opacity:0.851" fill="#d8d1f5" d="M 301.5,98.5 C 301.5,98.8333 301.5,99.1667 301.5,99.5C 298.833,100.833 296.167,102.167 293.5,103.5C 293.167,103.5 292.833,103.5 292.5,103.5C 294.118,102.549 295.451,101.216 296.5,99.5C 298.045,98.5481 299.712,98.2148 301.5,98.5 Z"/></g>
<g><path style="opacity:0.78" fill="#c1b6f1" d="M 332.5,98.5 C 332.027,99.9063 331.027,100.573 329.5,100.5C 329.973,99.0937 330.973,98.427 332.5,98.5 Z"/></g>
<g><path style="opacity:0.824" fill="#8973e5" d="M 519.5,99.5 C 521.027,99.427 522.027,100.094 522.5,101.5C 520.973,101.573 519.973,100.906 519.5,99.5 Z"/></g>
<g><path style="opacity:0.753" fill="#9a86e9" d="M 522.5,101.5 C 524.027,101.427 525.027,102.094 525.5,103.5C 523.973,103.573 522.973,102.906 522.5,101.5 Z"/></g>
<g><path style="opacity:0.733" fill="#b5a7ee" d="M 552.5,101.5 C 554.027,101.427 555.027,102.094 555.5,103.5C 553.973,103.573 552.973,102.906 552.5,101.5 Z"/></g>
<g><path style="opacity:0.855" fill="#856ee5" d="M 328.5,100.5 C 326.65,102.572 324.317,103.905 321.5,104.5C 322.348,102.907 323.681,101.74 325.5,101C 326.448,100.517 327.448,100.351 328.5,100.5 Z"/></g>
<g><path style="opacity:0.859" fill="#866de5" d="M 525.5,103.5 C 529.168,104.061 532.168,105.728 534.5,108.5C 531.144,107.389 528.144,105.723 525.5,103.5 Z"/></g>
<g><path style="opacity:0.855" fill="#876fe6" d="M 292.5,103.5 C 292.833,103.5 293.167,103.5 293.5,103.5C 292.656,105.759 290.989,106.759 288.5,106.5C 289.795,105.512 291.128,104.512 292.5,103.5 Z"/></g>
<g><path style="opacity:0.765" fill="#b4a5ee" d="M 559.5,105.5 C 561.966,106.298 563.966,107.631 565.5,109.5C 562.853,109.071 560.853,107.738 559.5,105.5 Z"/></g>
<g><path style="opacity:0.843" fill="#c1b5f1" d="M 318.5,106.5 C 317.817,108.176 316.483,108.843 314.5,108.5C 315.671,107.655 317.005,106.989 318.5,106.5 Z"/></g>
<g><path style="opacity:0.839" fill="#7e66e4" d="M 288.5,106.5 C 287.172,108.719 285.172,110.052 282.5,110.5C 284.06,108.571 286.06,107.238 288.5,106.5 Z"/></g>
<g><path style="opacity:0.831" fill="#c6baf2" d="M 565.5,109.5 C 567.483,109.157 568.817,109.824 569.5,111.5C 568.005,111.011 566.671,110.345 565.5,109.5 Z"/></g>
<g><path style="opacity:0.788" fill="#c3b7f1" d="M 314.5,108.5 C 312.326,111.581 309.326,113.581 305.5,114.5C 308.039,111.918 311.039,109.918 314.5,108.5 Z"/></g>
<g><path style="opacity:0.839" fill="#ccc1f3" d="M 569.5,111.5 C 572.639,111.599 574.973,112.932 576.5,115.5C 573.683,114.905 571.35,113.572 569.5,111.5 Z"/></g>
<g><path style="opacity:0.745" fill="#907ae7" d="M 282.5,110.5 C 280.434,112.199 278.1,113.532 275.5,114.5C 277.121,112.058 279.454,110.725 282.5,110.5 Z"/></g>
<g><path style="opacity:0.812" fill="#8a73e6" d="M 302.5,115.5 C 301.71,116.401 300.71,117.068 299.5,117.5C 299.821,115.952 300.821,115.285 302.5,115.5 Z"/></g>
<g><path style="opacity:0.875" fill="#d9d2f5" d="M 537.5,110.5 C 541.674,113.088 546.007,115.421 550.5,117.5C 550.5,117.833 550.5,118.167 550.5,118.5C 546.233,116.634 541.9,114.967 537.5,113.5C 537.5,112.5 537.5,111.5 537.5,110.5 Z"/></g>
<g><path style="opacity:0.784" fill="#826ae4" d="M 576.5,116.5 C 577.959,116.433 579.292,116.766 580.5,117.5C 580.5,117.833 580.5,118.167 580.5,118.5C 578.847,118.34 577.514,117.674 576.5,116.5 Z"/></g>
<g><path style="opacity:0.918" fill="#7b61e3" d="M 550.5,118.5 C 550.5,118.167 550.5,117.833 550.5,117.5C 552.989,117.241 554.656,118.241 555.5,120.5C 553.716,120.107 552.05,119.441 550.5,118.5 Z"/></g>
<g><path style="opacity:0.902" fill="#d3cbf4" d="M 580.5,118.5 C 580.5,118.167 580.5,117.833 580.5,117.5C 582.989,117.241 584.656,118.241 585.5,120.5C 583.716,120.107 582.05,119.441 580.5,118.5 Z"/></g>
<g><path style="opacity:0.753" fill="#a28fea" d="M 298.5,117.5 C 297.738,119.262 296.404,120.262 294.5,120.5C 295.262,118.738 296.596,117.738 298.5,117.5 Z"/></g>
<g><path style="opacity:0.741" fill="#927ee8" d="M 555.5,120.5 C 557.027,120.427 558.027,121.094 558.5,122.5C 556.973,122.573 555.973,121.906 555.5,120.5 Z"/></g>
<g><path style="opacity:0.769" fill="#836be5" d="M 266.5,119.5 C 264.973,122.068 262.639,123.401 259.5,123.5C 261.336,121.412 263.669,120.079 266.5,119.5 Z"/></g>
<g><path style="opacity:0.851" fill="#c5baf1" d="M 294.5,120.5 C 291.787,123.417 288.454,125.417 284.5,126.5C 287.378,123.92 290.712,121.92 294.5,120.5 Z"/></g>
<g><path style="opacity:0.827" fill="#8269e4" d="M 558.5,122.5 C 561.639,122.599 563.973,123.932 565.5,126.5C 562.683,125.905 560.35,124.572 558.5,122.5 Z"/></g>
<g><path style="opacity:0.745" fill="#c2b5f1" d="M 585.5,120.5 C 589.509,121.59 592.842,123.59 595.5,126.5C 592.733,125.568 590.067,124.401 587.5,123C 586.619,122.292 585.953,121.458 585.5,120.5 Z"/></g>
<g><path style="opacity:0.855" fill="#d0c7f4" d="M 595.5,126.5 C 599.168,127.061 602.168,128.728 604.5,131.5C 603.833,131.5 603.167,131.5 602.5,131.5C 600.066,130.015 597.733,128.348 595.5,126.5 Z"/></g>
<g><path style="opacity:0.78" fill="#9986e9" d="M 251.5,128.5 C 250.329,129.345 248.995,130.011 247.5,130.5C 248.183,128.824 249.517,128.157 251.5,128.5 Z"/></g>
<g><path style="opacity:0.769" fill="#b4a5ee" d="M 283.5,126.5 C 282.147,128.738 280.147,130.071 277.5,130.5C 279.034,128.631 281.034,127.298 283.5,126.5 Z"/></g>
<g><path style="opacity:0.808" fill="#795fe3" d="M 565.5,126.5 C 569.911,127.393 573.578,129.393 576.5,132.5C 574.289,131.877 572.289,130.877 570.5,129.5C 568.566,128.89 566.899,127.89 565.5,126.5 Z"/></g>
<g><path style="opacity:0.796" fill="#a391eb" d="M 277.5,130.5 C 276.329,131.345 274.995,132.011 273.5,132.5C 274.183,130.824 275.517,130.157 277.5,130.5 Z"/></g>
<g><path style="opacity:0.925" fill="#d9d2f6" d="M 570.5,129.5 C 572.289,130.877 574.289,131.877 576.5,132.5C 576.5,132.833 576.5,133.167 576.5,133.5C 574.565,132.85 572.565,132.517 570.5,132.5C 570.5,131.5 570.5,130.5 570.5,129.5 Z"/></g>
<g><path style="opacity:0.831" fill="#d9d2f5" d="M 245.5,130.5 C 245.167,131.167 244.833,131.833 244.5,132.5C 242.716,132.893 241.05,133.559 239.5,134.5C 240.446,131.687 242.446,130.354 245.5,130.5 Z"/></g>
<g><path style="opacity:0.784" fill="#8a73e6" d="M 602.5,131.5 C 603.167,131.5 603.833,131.5 604.5,131.5C 605.5,131.833 606.167,132.5 606.5,133.5C 604.847,133.34 603.514,132.674 602.5,131.5 Z"/></g>
<g><path style="opacity:0.812" fill="#c7bcf2" d="M 239.5,134.5 C 238.71,135.401 237.71,136.068 236.5,136.5C 236.821,134.952 237.821,134.285 239.5,134.5 Z"/></g>
<g><path style="opacity:0.851" fill="#917be8" d="M 273.5,132.5 C 271.65,134.572 269.317,135.905 266.5,136.5C 267.348,134.907 268.681,133.74 270.5,133C 271.448,132.517 272.448,132.351 273.5,132.5 Z"/></g>
<g><path style="opacity:0.784" fill="#937fe8" d="M 581.5,135.5 C 583.027,135.427 584.027,136.094 584.5,137.5C 582.973,137.573 581.973,136.906 581.5,135.5 Z"/></g>
<g><path style="opacity:0.792" fill="#bcb1f0" d="M 611.5,135.5 C 613.027,135.427 614.027,136.094 614.5,137.5C 612.973,137.573 611.973,136.906 611.5,135.5 Z"/></g>
<g><path style="opacity:0.851" fill="#d2c8f4" d="M 614.5,137.5 C 617.393,137.031 619.393,138.031 620.5,140.5C 618.03,140.346 616.03,139.346 614.5,137.5 Z"/></g>
<g><path style="opacity:0.78" fill="#ab99ec" d="M 584.5,137.5 C 587.178,138.834 589.845,140.167 592.5,141.5C 592.5,141.833 592.5,142.167 592.5,142.5C 589.218,141.699 586.552,140.032 584.5,137.5 Z"/></g>
<g><path style="opacity:0.914" fill="#7256e1" d="M 244.5,132.5 C 240.764,136.215 236.43,139.215 231.5,141.5C 229.955,142.452 228.288,142.785 226.5,142.5C 229.606,140.21 232.939,138.21 236.5,136.5C 237.71,136.068 238.71,135.401 239.5,134.5C 241.05,133.559 242.716,132.893 244.5,132.5 Z"/></g>
<g><path style="opacity:0.784" fill="#866fe5" d="M 592.5,142.5 C 592.5,142.167 592.5,141.833 592.5,141.5C 594.966,142.298 596.966,143.631 598.5,145.5C 596.289,144.877 594.289,143.877 592.5,142.5 Z"/></g>
<g><path style="opacity:0.859" fill="#d3cbf5" d="M 621.5,141.5 C 624.639,141.599 626.973,142.932 628.5,145.5C 627.833,145.167 627.167,144.833 626.5,144.5C 624.566,143.89 622.899,142.89 621.5,141.5 Z"/></g>
<g><path style="opacity:0.827" fill="#c7bcf2" d="M 259.5,140.5 C 257.973,143.068 255.639,144.401 252.5,144.5C 254.606,142.878 256.939,141.545 259.5,140.5 Z"/></g>
<g><path style="opacity:0.885" fill="#d7d1f5" d="M 219.5,146.5 C 219.167,225.668 219.501,304.668 220.5,383.5C 220.833,384.5 221.5,385.167 222.5,385.5C 226.469,387.82 230.469,390.154 234.5,392.5C 234.5,392.833 234.5,393.167 234.5,393.5C 228.464,391.807 223.13,388.807 218.5,384.5C 218.167,344.833 217.833,305.167 217.5,265.5C 217.5,225.494 218.167,185.828 219.5,146.5 Z"/></g>
<g><path style="opacity:0.905" fill="#6246df" d="M 221.5,146.5 C 221.172,226.208 221.506,305.874 222.5,385.5C 221.5,385.167 220.833,384.5 220.5,383.5C 220.167,304.332 220.501,225.332 221.5,146.5 Z"/></g>
<g><path style="opacity:0.851" fill="#d9d0f5" d="M 252.5,144.5 C 251.554,147.313 249.554,148.646 246.5,148.5C 248.205,146.808 250.205,145.475 252.5,144.5 Z"/></g>
<g><path style="opacity:0.917" fill="#6e53e1" d="M 626.5,144.5 C 627.167,144.833 627.833,145.167 628.5,145.5C 628.5,146.167 628.833,146.5 629.5,146.5C 629.667,225.501 629.5,304.501 629,383.5C 628.617,384.056 628.117,384.389 627.5,384.5C 627.828,304.459 627.494,224.459 626.5,144.5 Z"/></g>
<g><path style="opacity:0.894" fill="#d6cef5" d="M 600.5,146.5 C 601.167,146.833 601.833,147.167 602.5,147.5C 603.694,148.272 604.694,149.272 605.5,150.5C 603.883,149.962 602.216,149.629 600.5,149.5C 600.5,148.5 600.5,147.5 600.5,146.5 Z"/></g>
<g><path style="opacity:0.729" fill="#af9eed" d="M 243.5,149.5 C 242.738,151.262 241.404,152.262 239.5,152.5C 240.262,150.738 241.596,149.738 243.5,149.5 Z"/></g>
<g><path style="opacity:0.742" fill="#846fe6" d="M 222.5,144.5 C 222.672,145.492 222.338,146.158 221.5,146.5C 220.501,225.332 220.167,304.332 220.5,383.5C 219.501,304.668 219.167,225.668 219.5,146.5C 220.29,145.599 221.29,144.932 222.5,144.5 Z"/></g>
<g><path style="opacity:0.928" fill="#f2f0fa" d="M 610.5,153.5 C 611.391,154.11 612.391,154.443 613.5,154.5C 613.5,228.167 613.5,301.833 613.5,375.5C 613.167,375.5 612.833,375.5 612.5,375.5C 613.153,301.354 612.487,227.354 610.5,153.5 Z"/></g>
<g><path style="opacity:0.902" fill="#e2dff7" d="M 628.5,145.5 C 629.5,145.5 630.5,145.5 631.5,145.5C 631.833,225.002 631.499,304.335 630.5,383.5C 630.833,304.332 630.499,225.332 629.5,146.5C 628.833,146.5 628.5,146.167 628.5,145.5 Z"/></g>
<g><path style="opacity:0.908" fill="#745be2" d="M 234.5,154.5 C 233.167,228.167 233.167,301.833 234.5,375.5C 233.167,339.006 232.5,302.173 232.5,265C 232.5,227.827 233.167,190.994 234.5,154.5 Z"/></g>
<g><path style="opacity:0.829" fill="#e9e6f8" d="M 365.5,181.5 C 355.985,181.173 346.652,181.506 337.5,182.5C 336.782,219.676 336.116,257.01 335.5,294.5C 335.5,297.167 335.5,299.833 335.5,302.5C 335.167,302.5 334.833,302.5 334.5,302.5C 334.167,262.161 334.5,221.828 335.5,181.5C 336.308,181.192 336.975,180.692 337.5,180C 347.167,179.333 356.833,179.333 366.5,180C 365.944,180.383 365.611,180.883 365.5,181.5 Z"/></g>
<g><path style="opacity:0.868" fill="#745be2" d="M 602.5,147.5 C 607.3,149.138 611.8,151.471 616,154.5C 616.167,191.333 616.333,228.167 616.5,265C 616.5,302.173 615.833,339.006 614.5,375.5C 615.663,302.237 615.83,228.904 615,155.5C 614.617,154.944 614.117,154.611 613.5,154.5C 612.391,154.443 611.391,154.11 610.5,153.5C 609.101,152.11 607.434,151.11 605.5,150.5C 604.694,149.272 603.694,148.272 602.5,147.5 Z"/></g>
<g><path style="opacity:0.998" fill="#5436dc" d="M 338.5,182.5 C 347.167,182.5 355.833,182.5 364.5,182.5C 364.5,223.167 364.5,263.833 364.5,304.5C 363.071,307.308 362.405,310.308 362.5,313.5C 361.094,313.973 360.427,314.973 360.5,316.5C 360.737,317.791 360.404,318.791 359.5,319.5C 357.73,321.454 356.397,323.787 355.5,326.5C 353.748,328.246 352.415,330.246 351.5,332.5C 349.122,333.692 347.122,335.359 345.5,337.5C 343.118,338.351 341.118,339.684 339.5,341.5C 335.673,342.267 332.006,343.267 328.5,344.5C 319.785,345.964 310.951,346.63 302,346.5C 292.742,346.61 283.576,345.943 274.5,344.5C 274.5,341.833 274.5,339.167 274.5,336.5C 274.912,331.334 275.912,326.334 277.5,321.5C 279.042,320.699 280.708,320.366 282.5,320.5C 292.978,323.365 303.311,323.031 313.5,319.5C 313.833,319.5 314.167,319.5 314.5,319.5C 316.403,319.204 318.07,318.537 319.5,317.5C 320.167,317.5 320.5,317.167 320.5,316.5C 323.32,316.913 325.32,315.913 326.5,313.5C 328.19,313.144 329.19,312.144 329.5,310.5C 331.929,309.735 333.262,308.069 333.5,305.5C 333.557,304.391 333.89,303.391 334.5,302.5C 334.833,302.5 335.167,302.5 335.5,302.5C 336.165,300.302 336.832,297.969 337.5,295.5C 338.5,257.839 338.833,220.173 338.5,182.5 Z"/></g>
<g><path style="opacity:0.998" fill="#5436dc" d="M 499.5,182.5 C 499.833,182.5 500.167,182.5 500.5,182.5C 500.918,183.222 501.584,183.722 502.5,184C 505.146,184.497 507.813,184.664 510.5,184.5C 512.415,184.216 514.081,184.549 515.5,185.5C 517.607,186.468 519.941,186.802 522.5,186.5C 522.973,187.906 523.973,188.573 525.5,188.5C 527.216,188.629 528.883,188.962 530.5,189.5C 531.568,190.434 532.901,190.768 534.5,190.5C 536.662,192.897 539.329,194.564 542.5,195.5C 543.167,195.833 543.833,196.167 544.5,196.5C 545.899,197.89 547.566,198.89 549.5,199.5C 549.488,202.142 550.821,203.475 553.5,203.5C 554.5,203.833 555.167,204.5 555.5,205.5C 555.5,207.5 556.5,208.5 558.5,208.5C 558.833,209.5 559.5,210.167 560.5,210.5C 561.701,212.909 563.367,214.909 565.5,216.5C 566.688,218.722 567.688,221.055 568.5,223.5C 568.157,225.483 568.824,226.817 570.5,227.5C 571.434,228.568 571.768,229.901 571.5,231.5C 572.219,233.764 572.552,236.097 572.5,238.5C 574.368,250.7 575.035,263.033 574.5,275.5C 572.861,279.253 572.194,283.253 572.5,287.5C 570.656,289.279 569.99,291.612 570.5,294.5C 568.824,295.183 568.157,296.517 568.5,298.5C 568.5,299.167 568.5,299.833 568.5,300.5C 566.824,301.183 566.157,302.517 566.5,304.5C 565.833,305.5 565.167,306.5 564.5,307.5C 563.094,307.973 562.427,308.973 562.5,310.5C 562.5,310.833 562.5,311.167 562.5,311.5C 560.478,312.507 559.145,314.174 558.5,316.5C 556.5,317.167 555.167,318.5 554.5,320.5C 552.81,320.856 551.81,321.856 551.5,323.5C 549.856,323.81 548.856,324.81 548.5,326.5C 547.833,326.5 547.5,326.833 547.5,327.5C 543.951,329.201 540.618,331.201 537.5,333.5C 537.5,334.167 537.167,334.5 536.5,334.5C 534.517,334.157 533.183,334.824 532.5,336.5C 528.494,337.309 524.827,338.642 521.5,340.5C 518.833,341.167 516.167,341.833 513.5,342.5C 510.482,342.335 507.482,342.502 504.5,343C 503.584,343.278 502.918,343.778 502.5,344.5C 492.866,345.392 483.199,345.725 473.5,345.5C 457.5,345.5 441.5,345.5 425.5,345.5C 425.5,291.167 425.5,236.833 425.5,182.5C 450.167,182.5 474.833,182.5 499.5,182.5 Z"/></g>
<g><path style="opacity:0.733" fill="#917ce7" d="M 500.5,182.5 C 504.04,182.753 507.373,183.419 510.5,184.5C 507.813,184.664 505.146,184.497 502.5,184C 501.584,183.722 500.918,183.222 500.5,182.5 Z"/></g>
<g><path style="opacity:0.753" fill="#cec4f3" d="M 515.5,185.5 C 518.85,185.335 522.183,185.502 525.5,186C 527.431,186.902 529.097,188.069 530.5,189.5C 528.883,188.962 527.216,188.629 525.5,188.5C 525.027,187.094 524.027,186.427 522.5,186.5C 519.941,186.802 517.607,186.468 515.5,185.5 Z"/></g>
<g><path style="opacity:0.725" fill="#9b88ea" d="M 522.5,186.5 C 524.027,186.427 525.027,187.094 525.5,188.5C 523.973,188.573 522.973,187.906 522.5,186.5 Z"/></g>
<g><path style="opacity:0.776" fill="#bcaff0" d="M 534.5,190.5 C 537.671,191.436 540.338,193.103 542.5,195.5C 539.329,194.564 536.662,192.897 534.5,190.5 Z"/></g>
<g><path style="opacity:0.906" fill="#d3caf4" d="M 544.5,196.5 C 546.989,196.241 548.656,197.241 549.5,199.5C 547.566,198.89 545.899,197.89 544.5,196.5 Z"/></g>
<g><path style="opacity:0.875" fill="#8a72e5" d="M 549.5,199.5 C 551.167,200.5 552.5,201.833 553.5,203.5C 550.821,203.475 549.488,202.142 549.5,199.5 Z"/></g>
<g><path style="opacity:0.707" fill="#d4cbf4" d="M 365.5,181.5 C 366.833,195.317 367.499,209.484 367.5,224C 367.701,244.024 367.035,263.857 365.5,283.5C 365.5,249.5 365.5,215.5 365.5,181.5 Z"/></g>
<g><path style="opacity:0.748" fill="#836ce5" d="M 337.5,182.5 C 346.652,181.506 355.985,181.173 365.5,181.5C 365.5,215.5 365.5,249.5 365.5,283.5C 365.825,290.687 365.491,297.687 364.5,304.5C 364.5,263.833 364.5,223.167 364.5,182.5C 355.833,182.5 347.167,182.5 338.5,182.5C 338.167,182.5 337.833,182.5 337.5,182.5 Z"/></g>
<g><path style="opacity:0.875" fill="#866fe5" d="M 555.5,205.5 C 556.833,206.167 557.833,207.167 558.5,208.5C 556.5,208.5 555.5,207.5 555.5,205.5 Z"/></g>
<g><path style="opacity:0.749" fill="#907be7" d="M 454.5,208.5 C 468.013,207.272 481.679,207.272 495.5,208.5C 496.167,208.5 496.5,208.833 496.5,209.5C 493.833,209.5 491.167,209.5 488.5,209.5C 477.346,208.505 466.012,208.172 454.5,208.5 Z"/></g>
<g><path style="opacity:0.999" fill="#fafafb" d="M 488.5,209.5 C 491.167,209.5 493.833,209.5 496.5,209.5C 497.833,209.5 499.167,209.5 500.5,209.5C 504.012,211.95 508.012,212.95 512.5,212.5C 513.183,214.176 514.517,214.843 516.5,214.5C 518.289,215.877 520.289,216.877 522.5,217.5C 523.899,218.89 525.566,219.89 527.5,220.5C 528.5,222.167 529.833,223.5 531.5,224.5C 532.5,225.833 533.5,227.167 534.5,228.5C 535.511,230.372 536.345,232.372 537,234.5C 537.383,233.944 537.883,233.611 538.5,233.5C 539.603,237.497 541.269,241.164 543.5,244.5C 543.833,245.167 544.167,245.833 544.5,246.5C 544.5,257.5 544.5,268.5 544.5,279.5C 543.89,280.391 543.557,281.391 543.5,282.5C 543.5,283.5 543.5,284.5 543.5,285.5C 541.273,286.401 540.273,288.067 540.5,290.5C 540.5,290.833 540.5,291.167 540.5,291.5C 538.952,291.821 538.285,292.821 538.5,294.5C 536.952,294.821 536.285,295.821 536.5,297.5C 536.5,298.167 536.167,298.5 535.5,298.5C 534.122,299.545 533.122,300.878 532.5,302.5C 530.856,302.81 529.856,303.81 529.5,305.5C 528.833,305.5 528.5,305.833 528.5,306.5C 526.566,307.11 524.899,308.11 523.5,309.5C 520.895,309.621 518.895,310.621 517.5,312.5C 514.876,313.494 512.21,314.494 509.5,315.5C 507.302,315.12 505.635,315.787 504.5,317.5C 494.833,317.5 485.167,317.5 475.5,317.5C 468.833,317.5 462.167,317.5 455.5,317.5C 455.5,281.833 455.5,246.167 455.5,210.5C 466.321,209.505 477.321,209.172 488.5,209.5 Z"/></g>
<g><path style="opacity:0.82" fill="#d0c7f3" d="M 560.5,210.5 C 563.086,211.638 564.753,213.638 565.5,216.5C 563.367,214.909 561.701,212.909 560.5,210.5 Z"/></g>
<g><path style="opacity:0.816" fill="#c1b4f1" d="M 500.5,209.5 C 504.596,210.508 508.596,211.508 512.5,212.5C 508.012,212.95 504.012,211.95 500.5,209.5 Z"/></g>
<g><path style="opacity:0.859" fill="#b3a5ef" d="M 512.5,212.5 C 513.708,213.234 515.041,213.567 516.5,213.5C 516.5,213.833 516.5,214.167 516.5,214.5C 514.517,214.843 513.183,214.176 512.5,212.5 Z"/></g>
<g><path style="opacity:0.875" fill="#8268e5" d="M 516.5,214.5 C 516.5,214.167 516.5,213.833 516.5,213.5C 519.267,213.87 521.267,215.204 522.5,217.5C 520.289,216.877 518.289,215.877 516.5,214.5 Z"/></g>
<g><path style="opacity:0.894" fill="#785ee2" d="M 522.5,217.5 C 524.989,217.241 526.656,218.241 527.5,220.5C 525.566,219.89 523.899,218.89 522.5,217.5 Z"/></g>
<g><path style="opacity:0.941" fill="#846de5" d="M 499.5,182.5 C 474.833,182.5 450.167,182.5 425.5,182.5C 425.5,236.833 425.5,291.167 425.5,345.5C 441.5,345.5 457.5,345.5 473.5,345.5C 473.5,345.833 473.5,346.167 473.5,346.5C 457.167,346.5 440.833,346.5 424.5,346.5C 424.5,291.833 424.5,237.167 424.5,182.5C 449.5,181.167 474.5,181.167 499.5,182.5 Z"/></g>
<g><path style="opacity:0.925" fill="#775be2" d="M 531.5,224.5 C 534.179,224.525 535.512,225.858 535.5,228.5C 535.167,228.5 534.833,228.5 534.5,228.5C 533.5,227.167 532.5,225.833 531.5,224.5 Z"/></g>
<g><path style="opacity:0.816" fill="#8a74e7" d="M 568.5,223.5 C 569.345,224.671 570.011,226.005 570.5,227.5C 568.824,226.817 568.157,225.483 568.5,223.5 Z"/></g>
<g><path style="opacity:0.78" fill="#d4ccf4" d="M 534.5,228.5 C 534.833,228.5 535.167,228.5 535.5,228.5C 536.752,230.001 537.752,231.668 538.5,233.5C 537.883,233.611 537.383,233.944 537,234.5C 536.345,232.372 535.511,230.372 534.5,228.5 Z"/></g>
<g><path style="opacity:0.855" fill="#cbc0f3" d="M 538.5,233.5 C 541.125,236.698 542.791,240.365 543.5,244.5C 541.269,241.164 539.603,237.497 538.5,233.5 Z"/></g>
<g><path style="opacity:0.863" fill="#9b88e9" d="M 571.5,231.5 C 572.117,231.611 572.617,231.944 573,232.5C 573.495,234.473 573.662,236.473 573.5,238.5C 573.167,238.5 572.833,238.5 572.5,238.5C 572.552,236.097 572.219,233.764 571.5,231.5 Z"/></g>
<g><path style="opacity:0.949" fill="#efeef9" d="M 455.5,210.5 C 455.5,246.167 455.5,281.833 455.5,317.5C 462.167,317.5 468.833,317.5 475.5,317.5C 468.687,318.491 461.687,318.825 454.5,318.5C 454.168,282.329 454.502,246.329 455.5,210.5 Z"/></g>
<g><path style="opacity:0.847" fill="#755be2" d="M 495.5,208.5 C 481.679,207.272 468.013,207.272 454.5,208.5C 453.502,245.33 453.168,282.33 453.5,319.5C 452.167,301.179 451.5,282.512 451.5,263.5C 451.833,244.833 452.167,226.167 452.5,207.5C 466.455,206.351 480.455,206.184 494.5,207C 495.056,207.383 495.389,207.883 495.5,208.5 Z"/></g>
<g><path style="opacity:0.791" fill="#c6bdf1" d="M 454.5,208.5 C 466.012,208.172 477.346,208.505 488.5,209.5C 477.321,209.172 466.321,209.505 455.5,210.5C 454.502,246.329 454.168,282.329 454.5,318.5C 454.5,318.833 454.5,319.167 454.5,319.5C 454.167,319.5 453.833,319.5 453.5,319.5C 453.168,282.33 453.502,245.33 454.5,208.5 Z"/></g>
<g><path style="opacity:0.877" fill="#7b63e3" d="M 572.5,238.5 C 572.833,238.5 573.167,238.5 573.5,238.5C 573.892,240.179 574.392,241.846 575,243.5C 575.5,254.161 575.667,264.828 575.5,275.5C 575.167,275.5 574.833,275.5 574.5,275.5C 575.035,263.033 574.368,250.7 572.5,238.5 Z"/></g>
<g><path style="opacity:0.722" fill="#9986e9" d="M 337.5,182.5 C 337.667,218.835 337.5,255.168 337,291.5C 336.768,292.737 336.268,293.737 335.5,294.5C 336.116,257.01 336.782,219.676 337.5,182.5 Z"/></g>
<g><path style="opacity:0.689" fill="#a999ec" d="M 545.5,248.5 C 546.371,251.003 547.037,253.67 547.5,256.5C 547.818,261.032 547.485,265.366 546.5,269.5C 546.422,262.485 546.089,255.485 545.5,248.5 Z"/></g>
<g><path style="opacity:0.862" fill="#7c64e3" d="M 547.5,256.5 C 549.106,264.016 548.439,271.349 545.5,278.5C 545.264,275.391 545.597,272.391 546.5,269.5C 547.485,265.366 547.818,261.032 547.5,256.5 Z"/></g>
<g><path style="opacity:0.923" fill="#e4e0f7" d="M 544.5,246.5 C 545.338,246.842 545.672,247.508 545.5,248.5C 546.089,255.485 546.422,262.485 546.5,269.5C 545.597,272.391 545.264,275.391 545.5,278.5C 545.5,278.833 545.5,279.167 545.5,279.5C 545.167,279.5 544.833,279.5 544.5,279.5C 544.5,268.5 544.5,257.5 544.5,246.5 Z"/></g>
<g><path style="opacity:0.779" fill="#cbc2f3" d="M 613.5,154.5 C 614.117,154.611 614.617,154.944 615,155.5C 615.83,228.904 615.663,302.237 614.5,375.5C 614.167,375.5 613.833,375.5 613.5,375.5C 613.5,301.833 613.5,228.167 613.5,154.5 Z"/></g>
<g><path style="opacity:0.843" fill="#8f79e7" d="M 574.5,275.5 C 574.833,275.5 575.167,275.5 575.5,275.5C 575.634,277.292 575.301,278.958 574.5,280.5C 573.833,282.833 573.167,285.167 572.5,287.5C 572.194,283.253 572.861,279.253 574.5,275.5 Z"/></g>
<g><path style="opacity:0.753" fill="#a998ed" d="M 544.5,279.5 C 544.833,279.5 545.167,279.5 545.5,279.5C 545.573,281.027 544.906,282.027 543.5,282.5C 543.557,281.391 543.89,280.391 544.5,279.5 Z"/></g>
<g><path style="opacity:0.737" fill="#ac9cec" d="M 543.5,285.5 C 542.89,287.434 541.89,289.101 540.5,290.5C 540.273,288.067 541.273,286.401 543.5,285.5 Z"/></g>
<g><path style="opacity:0.941" fill="#d4ccf5" d="M 574.5,280.5 C 574.664,283.187 574.497,285.854 574,288.5C 573.292,289.381 572.458,290.047 571.5,290.5C 571.557,289.391 571.89,288.391 572.5,287.5C 573.167,285.167 573.833,282.833 574.5,280.5 Z"/></g>
<g><path style="opacity:0.922" fill="#6448df" d="M 337.5,182.5 C 337.833,182.5 338.167,182.5 338.5,182.5C 338.833,220.173 338.5,257.839 337.5,295.5C 336.832,297.969 336.165,300.302 335.5,302.5C 335.5,299.833 335.5,297.167 335.5,294.5C 336.268,293.737 336.768,292.737 337,291.5C 337.5,255.168 337.667,218.835 337.5,182.5 Z"/></g>
<g><path style="opacity:0.835" fill="#846ce5" d="M 572.5,287.5 C 571.89,288.391 571.557,289.391 571.5,290.5C 571.768,292.099 571.434,293.432 570.5,294.5C 569.99,291.612 570.656,289.279 572.5,287.5 Z"/></g>
<g><path style="opacity:0.8" fill="#baaeef" d="M 540.5,291.5 C 540.068,292.71 539.401,293.71 538.5,294.5C 538.285,292.821 538.952,291.821 540.5,291.5 Z"/></g>
<g><path style="opacity:0.796" fill="#c1b4f1" d="M 538.5,294.5 C 538.068,295.71 537.401,296.71 536.5,297.5C 536.285,295.821 536.952,294.821 538.5,294.5 Z"/></g>
<g><path style="opacity:0.827" fill="#8a74e6" d="M 570.5,294.5 C 570.011,295.995 569.345,297.329 568.5,298.5C 568.157,296.517 568.824,295.183 570.5,294.5 Z"/></g>
<g><path style="opacity:0.922" fill="#866ee5" d="M 535.5,298.5 C 535.5,299.833 535.5,301.167 535.5,302.5C 534.5,302.5 533.5,302.5 532.5,302.5C 533.122,300.878 534.122,299.545 535.5,298.5 Z"/></g>
<g><path style="opacity:0.824" fill="#ac9cec" d="M 568.5,300.5 C 568.011,301.995 567.345,303.329 566.5,304.5C 566.157,302.517 566.824,301.183 568.5,300.5 Z"/></g>
<g><path style="opacity:0.839" fill="#9581e8" d="M 532.5,302.5 C 532.144,304.19 531.144,305.19 529.5,305.5C 529.856,303.81 530.856,302.81 532.5,302.5 Z"/></g>
<g><path style="opacity:0.816" fill="#947ee8" d="M 528.5,306.5 C 527.599,308.727 525.933,309.727 523.5,309.5C 524.899,308.11 526.566,307.11 528.5,306.5 Z"/></g>
<g><path style="opacity:0.706" fill="#a08feb" d="M 564.5,307.5 C 564.573,309.027 563.906,310.027 562.5,310.5C 562.427,308.973 563.094,307.973 564.5,307.5 Z"/></g>
<g><path style="opacity:0.855" fill="#836ae5" d="M 333.5,305.5 C 333.262,308.069 331.929,309.735 329.5,310.5C 330.124,308.246 331.457,306.579 333.5,305.5 Z"/></g>
<g><path style="opacity:0.933" fill="#d3caf4" d="M 523.5,309.5 C 522.087,310.935 520.42,311.935 518.5,312.5C 518.167,312.5 517.833,312.5 517.5,312.5C 518.895,310.621 520.895,309.621 523.5,309.5 Z"/></g>
<g><path style="opacity:0.831" fill="#c6bbf2" d="M 237.5,153.5 C 237.217,154.289 236.717,154.956 236,155.5C 235.333,228.5 235.333,301.5 236,374.5C 239.318,376.011 242.151,378.011 244.5,380.5C 241.167,378.833 237.833,377.167 234.5,375.5C 233.167,301.833 233.167,228.167 234.5,154.5C 235.391,153.89 236.391,153.557 237.5,153.5 Z"/></g>
<g><path style="opacity:0.859" fill="#907be8" d="M 329.5,310.5 C 329.19,312.144 328.19,313.144 326.5,313.5C 326.81,311.856 327.81,310.856 329.5,310.5 Z"/></g>
<g><path style="opacity:0.663" fill="#927de8" d="M 517.5,312.5 C 517.833,312.5 518.167,312.5 518.5,312.5C 517.263,314.097 515.596,315.263 513.5,316C 512.207,316.49 510.873,316.657 509.5,316.5C 509.5,316.167 509.5,315.833 509.5,315.5C 512.21,314.494 514.876,313.494 517.5,312.5 Z"/></g>
<g><path style="opacity:0.875" fill="#c5baf2" d="M 562.5,311.5 C 562.21,314.127 560.876,315.794 558.5,316.5C 559.145,314.174 560.478,312.507 562.5,311.5 Z"/></g>
<g><path style="opacity:0.886" fill="#8269e5" d="M 326.5,313.5 C 325.32,315.913 323.32,316.913 320.5,316.5C 322.456,315.508 324.456,314.508 326.5,313.5 Z"/></g>
<g><path style="opacity:0.784" fill="#9c89e9" d="M 362.5,313.5 C 362.573,315.027 361.906,316.027 360.5,316.5C 360.427,314.973 361.094,313.973 362.5,313.5 Z"/></g>
<g><path style="opacity:0.824" fill="#b8aaef" d="M 509.5,315.5 C 509.5,315.833 509.5,316.167 509.5,316.5C 509.167,316.5 508.833,316.5 508.5,316.5C 507.167,316.833 505.833,317.167 504.5,317.5C 505.635,315.787 507.302,315.12 509.5,315.5 Z"/></g>
<g><path style="opacity:0.796" fill="#a291ea" d="M 319.5,317.5 C 318.07,318.537 316.403,319.204 314.5,319.5C 315.635,317.787 317.302,317.12 319.5,317.5 Z"/></g>
<g><path style="opacity:0.723" fill="#d5ccf5" d="M 475.5,317.5 C 485.167,317.5 494.833,317.5 504.5,317.5C 500.366,318.485 496.032,318.818 491.5,318.5C 479.185,319.315 466.852,319.649 454.5,319.5C 454.5,319.167 454.5,318.833 454.5,318.5C 461.687,318.825 468.687,318.491 475.5,317.5 Z"/></g>
<g><path style="opacity:0.816" fill="#a08deb" d="M 558.5,316.5 C 557.833,318.5 556.5,319.833 554.5,320.5C 555.167,318.5 556.5,317.167 558.5,316.5 Z"/></g>
<g><path style="opacity:0.793" fill="#9784e9" d="M 491.5,318.5 C 489.833,319.167 488.167,319.833 486.5,320.5C 475.321,320.828 464.321,320.495 453.5,319.5C 453.833,319.5 454.167,319.5 454.5,319.5C 466.852,319.649 479.185,319.315 491.5,318.5 Z"/></g>
<g><path style="opacity:0.82" fill="#6548df" d="M 508.5,316.5 C 508.119,317.931 507.119,318.764 505.5,319C 499.183,319.765 492.849,320.265 486.5,320.5C 488.167,319.833 489.833,319.167 491.5,318.5C 496.032,318.818 500.366,318.485 504.5,317.5C 505.833,317.167 507.167,316.833 508.5,316.5 Z"/></g>
<g><path style="opacity:0.804" fill="#9b88e9" d="M 282.5,319.5 C 282.5,319.833 282.5,320.167 282.5,320.5C 280.708,320.366 279.042,320.699 277.5,321.5C 277.5,321.167 277.5,320.833 277.5,320.5C 278.919,319.549 280.585,319.216 282.5,319.5 Z"/></g>
<g><path style="opacity:0.68" fill="#c0b4f1" d="M 282.5,320.5 C 282.5,320.167 282.5,319.833 282.5,319.5C 292.833,320.833 303.167,320.833 313.5,319.5C 303.311,323.031 292.978,323.365 282.5,320.5 Z"/></g>
<g><path style="opacity:0.835" fill="#9b87e9" d="M 554.5,320.5 C 554.19,322.144 553.19,323.144 551.5,323.5C 551.81,321.856 552.81,320.856 554.5,320.5 Z"/></g>
<g><path style="opacity:0.792" fill="#8871e5" d="M 359.5,319.5 C 358.833,321.5 358.167,323.5 357.5,325.5C 356.833,325.833 356.167,326.167 355.5,326.5C 356.397,323.787 357.73,321.454 359.5,319.5 Z"/></g>
<g><path style="opacity:0.796" fill="#a794ec" d="M 551.5,323.5 C 551.144,325.19 550.144,326.19 548.5,326.5C 548.856,324.81 549.856,323.81 551.5,323.5 Z"/></g>
<g><path style="opacity:0.916" fill="#e5e0f8" d="M 277.5,320.5 C 277.5,320.833 277.5,321.167 277.5,321.5C 275.912,326.334 274.912,331.334 274.5,336.5C 273.527,338.948 273.194,341.615 273.5,344.5C 271.934,336.777 272.601,329.11 275.5,321.5C 276.183,321.137 276.85,320.804 277.5,320.5 Z"/></g>
<g><path style="opacity:0.722" fill="#c0b4f0" d="M 357.5,325.5 C 356.585,327.754 355.252,329.754 353.5,331.5C 352.833,331.833 352.167,332.167 351.5,332.5C 352.415,330.246 353.748,328.246 355.5,326.5C 356.167,326.167 356.833,325.833 357.5,325.5 Z"/></g>
<g><path style="opacity:0.824" fill="#b8aaef" d="M 547.5,327.5 C 544.984,330.729 541.65,332.729 537.5,333.5C 540.618,331.201 543.951,329.201 547.5,327.5 Z"/></g>
<g><path style="opacity:0.82" fill="#9582e8" d="M 536.5,334.5 C 535.329,335.345 533.995,336.011 532.5,336.5C 533.183,334.824 534.517,334.157 536.5,334.5 Z"/></g>
<g><path style="opacity:0.957" fill="#e3ddf7" d="M 353.5,331.5 C 352.303,335.354 349.636,337.354 345.5,337.5C 347.122,335.359 349.122,333.692 351.5,332.5C 352.167,332.167 352.833,331.833 353.5,331.5 Z"/></g>
<g><path style="opacity:0.647" fill="#9580e8" d="M 532.5,336.5 C 530.544,337.492 528.544,338.492 526.5,339.5C 524.708,339.366 523.042,339.699 521.5,340.5C 524.827,338.642 528.494,337.309 532.5,336.5 Z"/></g>
<g><path style="opacity:0.91" fill="#7c63e3" d="M 513.5,342.5 C 511.167,343.167 508.833,343.833 506.5,344.5C 505.167,344.5 503.833,344.5 502.5,344.5C 502.918,343.778 503.584,343.278 504.5,343C 507.482,342.502 510.482,342.335 513.5,342.5 Z"/></g>
<g><path style="opacity:0.871" fill="#ccc3f3" d="M 526.5,339.5 C 525.4,340.558 524.066,341.392 522.5,342C 517.336,343.626 512.003,344.46 506.5,344.5C 508.833,343.833 511.167,343.167 513.5,342.5C 516.167,341.833 518.833,341.167 521.5,340.5C 523.042,339.699 524.708,339.366 526.5,339.5 Z"/></g>
<g><path style="opacity:0.773" fill="#a694ec" d="M 274.5,336.5 C 274.5,339.167 274.5,341.833 274.5,344.5C 276.833,345.167 279.167,345.833 281.5,346.5C 278.302,347.036 275.635,346.369 273.5,344.5C 273.194,341.615 273.527,338.948 274.5,336.5 Z"/></g>
<g><path style="opacity:0.855" fill="#cfc6f3" d="M 339.5,341.5 C 338.571,342.315 337.571,343.148 336.5,344C 331.936,345.475 327.27,346.308 322.5,346.5C 324.5,345.833 326.5,345.167 328.5,344.5C 332.006,343.267 335.673,342.267 339.5,341.5 Z"/></g>
<g><path style="opacity:0.851" fill="#bfb3f0" d="M 502.5,344.5 C 503.833,344.5 505.167,344.5 506.5,344.5C 505.737,345.268 504.737,345.768 503.5,346C 496.508,346.5 489.508,346.666 482.5,346.5C 479.5,346.5 476.5,346.5 473.5,346.5C 473.5,346.167 473.5,345.833 473.5,345.5C 483.199,345.725 492.866,345.392 502.5,344.5 Z"/></g>
<g><path style="opacity:0.951" fill="#684bdf" d="M 274.5,344.5 C 283.576,345.943 292.742,346.61 302,346.5C 310.951,346.63 319.785,345.964 328.5,344.5C 326.5,345.167 324.5,345.833 322.5,346.5C 322.167,346.5 321.833,346.5 321.5,346.5C 319.236,347.219 316.903,347.552 314.5,347.5C 303.449,347.789 292.449,347.455 281.5,346.5C 279.167,345.833 276.833,345.167 274.5,344.5 Z"/></g>
<g><path style="opacity:0.796" fill="#b2a3ee" d="M 281.5,346.5 C 292.449,347.455 303.449,347.789 314.5,347.5C 314.5,347.833 314.5,348.167 314.5,348.5C 303.828,348.667 293.161,348.5 282.5,348C 281.944,347.617 281.611,347.117 281.5,346.5 Z"/></g>
<g><path style="opacity:0.82" fill="#cec5f4" d="M 321.5,346.5 C 321.389,347.117 321.056,347.617 320.5,348C 318.527,348.495 316.527,348.662 314.5,348.5C 314.5,348.167 314.5,347.833 314.5,347.5C 316.903,347.552 319.236,347.219 321.5,346.5 Z"/></g>
<g><path style="opacity:0.859" fill="#dad3f6" d="M 424.5,182.5 C 424.5,237.167 424.5,291.833 424.5,346.5C 440.833,346.5 457.167,346.5 473.5,346.5C 476.5,346.5 479.5,346.5 482.5,346.5C 480.369,347.314 478.036,347.814 475.5,348C 458.259,348.825 441.093,348.658 424,347.5C 423.168,292.332 423.335,237.332 424.5,182.5 Z"/></g>
<g><path style="opacity:0.847" fill="#8972e6" d="M 612.5,375.5 C 612.833,375.5 613.167,375.5 613.5,375.5C 613.833,375.5 614.167,375.5 614.5,375.5C 612.168,378.272 609.168,379.939 605.5,380.5C 607.827,378.842 610.161,377.175 612.5,375.5 Z"/></g>
<g><path style="opacity:0.953" fill="#d9d2f5" d="M 244.5,380.5 C 245.978,380.238 247.311,380.571 248.5,381.5C 250.079,382.667 251.412,384 252.5,385.5C 249.299,384.621 246.632,382.955 244.5,380.5 Z"/></g>
<g><path style="opacity:0.812" fill="#8269e4" d="M 605.5,380.5 C 604.191,383.451 601.857,384.784 598.5,384.5C 600.606,382.878 602.939,381.545 605.5,380.5 Z"/></g>
<g><path style="opacity:0.835" fill="#d4ccf5" d="M 252.5,385.5 C 255.639,385.599 257.973,386.932 259.5,389.5C 256.683,388.905 254.35,387.572 252.5,385.5 Z"/></g>
<g><path style="opacity:0.835" fill="#836be5" d="M 598.5,384.5 C 597.172,386.719 595.172,388.052 592.5,388.5C 594.06,386.571 596.06,385.238 598.5,384.5 Z"/></g>
<g><path style="opacity:0.808" fill="#c7bdf2" d="M 629.5,146.5 C 630.499,225.332 630.833,304.332 630.5,383.5C 627.651,386.997 623.984,389.331 619.5,390.5C 619.5,390.167 619.5,389.833 619.5,389.5C 622.437,388.197 625.103,386.53 627.5,384.5C 628.117,384.389 628.617,384.056 629,383.5C 629.5,304.501 629.667,225.501 629.5,146.5 Z"/></g>
<g><path style="opacity:0.835" fill="#8771e6" d="M 619.5,389.5 C 619.5,389.833 619.5,390.167 619.5,390.5C 618.391,390.557 617.391,390.89 616.5,391.5C 616.821,389.952 617.821,389.285 619.5,389.5 Z"/></g>
<g><path style="opacity:0.753" fill="#a695eb" d="M 589.5,389.5 C 589.027,390.906 588.027,391.573 586.5,391.5C 586.973,390.094 587.973,389.427 589.5,389.5 Z"/></g>
<g><path style="opacity:0.859" fill="#d2caf4" d="M 261.5,390.5 C 265.587,392.034 269.587,393.868 273.5,396C 275.692,397.067 277.358,398.567 278.5,400.5C 276.289,399.877 274.289,398.877 272.5,397.5C 270.784,396.029 268.784,395.029 266.5,394.5C 264.833,393.167 263.167,391.833 261.5,390.5 Z"/></g>
<g><path style="opacity:0.812" fill="#bbaff0" d="M 586.5,391.5 C 585.71,392.401 584.71,393.068 583.5,393.5C 583.821,391.952 584.821,391.285 586.5,391.5 Z"/></g>
<g><path style="opacity:0.733" fill="#a18feb" d="M 234.5,393.5 C 234.5,393.167 234.5,392.833 234.5,392.5C 236.027,392.427 237.027,393.094 237.5,394.5C 236.391,394.443 235.391,394.11 234.5,393.5 Z"/></g>
<g><path style="opacity:0.831" fill="#cbc2f3" d="M 582.5,393.5 C 581.71,394.401 580.71,395.068 579.5,395.5C 579.821,393.952 580.821,393.285 582.5,393.5 Z"/></g>
<g><path style="opacity:0.839" fill="#8e78e7" d="M 615.5,391.5 C 614.147,393.738 612.147,395.071 609.5,395.5C 611.034,393.631 613.034,392.298 615.5,391.5 Z"/></g>
<g><path style="opacity:0.765" fill="#ad9cec" d="M 239.5,395.5 C 240.609,395.557 241.609,395.89 242.5,396.5C 242.5,396.833 242.5,397.167 242.5,397.5C 240.973,397.573 239.973,396.906 239.5,395.5 Z"/></g>
<g><path style="opacity:0.894" fill="#7d63e3" d="M 266.5,394.5 C 268.784,395.029 270.784,396.029 272.5,397.5C 269.923,397.545 267.923,396.545 266.5,394.5 Z"/></g>
<g><path style="opacity:0.773" fill="#9681e8" d="M 609.5,395.5 C 608.486,396.674 607.153,397.34 605.5,397.5C 606.287,395.896 607.62,395.229 609.5,395.5 Z"/></g>
<g><path style="opacity:0.824" fill="#7d63e3" d="M 242.5,397.5 C 242.5,397.167 242.5,396.833 242.5,396.5C 245.267,396.87 247.267,398.204 248.5,400.5C 246.289,399.877 244.289,398.877 242.5,397.5 Z"/></g>
<g><path style="opacity:0.863" fill="#7c61e3" d="M 248.5,400.5 C 251.639,400.599 253.973,401.932 255.5,404.5C 254.833,404.167 254.167,403.833 253.5,403.5C 251.566,402.89 249.899,401.89 248.5,400.5 Z"/></g>
<g><path style="opacity:0.843" fill="#d4cbf4" d="M 278.5,400.5 C 281.639,400.599 283.973,401.932 285.5,404.5C 282.683,403.905 280.35,402.572 278.5,400.5 Z"/></g>
<g><path style="opacity:0.788" fill="#907ae7" d="M 574.5,398.5 C 571.787,401.417 568.454,403.417 564.5,404.5C 567.378,401.92 570.712,399.92 574.5,398.5 Z"/></g>
<g><path style="opacity:0.812" fill="#c2b5f1" d="M 604.5,398.5 C 603.313,400.975 601.313,401.975 598.5,401.5C 600.456,400.508 602.456,399.508 604.5,398.5 Z"/></g>
<g><path style="opacity:0.8" fill="#b2a2ee" d="M 598.5,402.5 C 597.329,403.345 595.995,404.011 594.5,404.5C 595.183,402.824 596.517,402.157 598.5,402.5 Z"/></g>
<g><path style="opacity:0.792" fill="#a897ec" d="M 594.5,404.5 C 592.955,405.64 591.288,406.64 589.5,407.5C 590.344,405.241 592.011,404.241 594.5,404.5 Z"/></g>
<g><path style="opacity:0.753" fill="#9b87e9" d="M 561.5,406.5 C 559.955,407.64 558.288,408.64 556.5,409.5C 556.5,409.167 556.5,408.833 556.5,408.5C 557.779,407.032 559.446,406.365 561.5,406.5 Z"/></g>
<g><path style="opacity:0.945" fill="#ded8f6" d="M 253.5,403.5 C 254.167,403.833 254.833,404.167 255.5,404.5C 258.299,406.403 261.299,408.069 264.5,409.5C 264.5,409.833 264.5,410.167 264.5,410.5C 261.657,410.083 258.99,409.083 256.5,407.5C 254.712,406.717 253.712,405.384 253.5,403.5 Z"/></g>
<g><path style="opacity:0.839" fill="#cac1f3" d="M 556.5,408.5 C 556.5,408.833 556.5,409.167 556.5,409.5C 555.391,409.557 554.391,409.89 553.5,410.5C 553.821,408.952 554.821,408.285 556.5,408.5 Z"/></g>
<g><path style="opacity:0.702" fill="#beb3f1" d="M 589.5,407.5 C 588.341,409.25 586.674,410.25 584.5,410.5C 585.659,408.75 587.326,407.75 589.5,407.5 Z"/></g>
<g><path style="opacity:0.808" fill="#d2c9f4" d="M 285.5,404.5 C 289.943,406.117 294.276,408.117 298.5,410.5C 299.298,410.957 299.631,411.624 299.5,412.5C 294.253,410.76 289.586,408.093 285.5,404.5 Z"/></g>
<g><path style="opacity:0.804" fill="#8d78e7" d="M 264.5,410.5 C 264.5,410.167 264.5,409.833 264.5,409.5C 266.027,409.427 267.027,410.094 267.5,411.5C 266.391,411.443 265.391,411.11 264.5,410.5 Z"/></g>
<g><path style="opacity:0.91" fill="#dfd9f6" d="M 264.5,410.5 C 265.391,411.11 266.391,411.443 267.5,411.5C 269.288,412.36 270.955,413.36 272.5,414.5C 268.741,415.042 266.074,413.708 264.5,410.5 Z"/></g>
<g><path style="opacity:0.863" fill="#d7cff5" d="M 583.5,410.5 C 582.878,413.776 580.878,415.109 577.5,414.5C 578.167,413.833 578.833,413.167 579.5,412.5C 580.514,411.326 581.847,410.66 583.5,410.5 Z"/></g>
<g><path style="opacity:0.963" fill="#e0daf7" d="M 549.5,412.5 C 548.306,413.272 547.306,414.272 546.5,415.5C 543.762,415.706 541.428,416.706 539.5,418.5C 539.167,418.5 538.833,418.5 538.5,418.5C 538.721,417.265 539.388,416.265 540.5,415.5C 543.613,414.62 546.613,413.62 549.5,412.5 Z"/></g>
<g><path style="opacity:0.886" fill="#7a60e3" d="M 579.5,412.5 C 578.833,413.167 578.167,413.833 577.5,414.5C 576.005,414.989 574.671,415.655 573.5,416.5C 573.167,416.5 572.833,416.5 572.5,416.5C 573.348,414.907 574.681,413.74 576.5,413C 577.448,412.517 578.448,412.351 579.5,412.5 Z"/></g>
<g><path style="opacity:0.882" fill="#7d63e4" d="M 274.5,415.5 C 278.168,416.061 281.168,417.728 283.5,420.5C 280.144,419.389 277.144,417.723 274.5,415.5 Z"/></g>
<g><path style="opacity:0.835" fill="#8770e5" d="M 546.5,415.5 C 544.572,417.294 542.238,418.294 539.5,418.5C 541.428,416.706 543.762,415.706 546.5,415.5 Z"/></g>
<g><path style="opacity:0.8" fill="#b0a0ed" d="M 572.5,416.5 C 572.833,416.5 573.167,416.5 573.5,416.5C 572.232,418.047 570.565,419.047 568.5,419.5C 569.211,417.799 570.545,416.799 572.5,416.5 Z"/></g>
<g><path style="opacity:0.863" fill="#d9d2f5" d="M 301.5,413.5 C 306.361,416.015 311.361,418.349 316.5,420.5C 317.612,421.265 318.279,422.265 318.5,423.5C 313.62,420.793 308.62,418.293 303.5,416C 302.619,415.292 301.953,414.458 301.5,413.5 Z"/></g>
<g><path style="opacity:0.831" fill="#917be7" d="M 538.5,418.5 C 538.833,418.5 539.167,418.5 539.5,418.5C 539.179,420.048 538.179,420.715 536.5,420.5C 537.167,419.833 537.833,419.167 538.5,418.5 Z"/></g>
<g><path style="opacity:0.792" fill="#a28feb" d="M 535.5,421.5 C 534.329,422.345 532.995,423.011 531.5,423.5C 532.183,421.824 533.517,421.157 535.5,421.5 Z"/></g>
<g><path style="opacity:0.871" fill="#8067e4" d="M 288.5,423.5 C 292.079,423.776 294.746,425.443 296.5,428.5C 294.517,427.529 292.517,426.529 290.5,425.5C 289.833,424.833 289.167,424.167 288.5,423.5 Z"/></g>
<g><path style="opacity:0.867" fill="#d5cdf5" d="M 318.5,423.5 C 321.639,423.599 323.973,424.932 325.5,427.5C 323.833,426.833 322.167,426.167 320.5,425.5C 319.833,424.833 319.167,424.167 318.5,423.5 Z"/></g>
<g><path style="opacity:0.769" fill="#d2caf4" d="M 565.5,421.5 C 564.514,423.408 562.848,424.408 560.5,424.5C 561.659,422.75 563.326,421.75 565.5,421.5 Z"/></g>
<g><path style="opacity:0.765" fill="#ae9eed" d="M 530.5,423.5 C 529.313,425.975 527.313,426.975 524.5,426.5C 526.456,425.508 528.456,424.508 530.5,423.5 Z"/></g>
<g><path style="opacity:0.91" fill="#795fe3" d="M 320.5,425.5 C 322.167,426.167 323.833,426.833 325.5,427.5C 325.842,428.338 326.508,428.672 327.5,428.5C 327.5,428.833 327.5,429.167 327.5,429.5C 326.448,429.649 325.448,429.483 324.5,429C 322.681,428.26 321.348,427.093 320.5,425.5 Z"/></g>
<g><path style="opacity:0.877" fill="#e0dbf7" d="M 290.5,425.5 C 292.517,426.529 294.517,427.529 296.5,428.5C 297.492,428.328 298.158,428.662 298.5,429.5C 299.5,430.167 300.5,430.833 301.5,431.5C 298.418,430.87 295.418,429.87 292.5,428.5C 291.388,427.735 290.721,426.735 290.5,425.5 Z"/></g>
<g><path style="opacity:0.757" fill="#c4b9f2" d="M 327.5,429.5 C 327.5,429.167 327.5,428.833 327.5,428.5C 329.027,428.427 330.027,429.094 330.5,430.5C 329.391,430.443 328.391,430.11 327.5,429.5 Z"/></g>
<g><path style="opacity:0.773" fill="#a08eea" d="M 553.5,427.5 C 553.027,428.906 552.027,429.573 550.5,429.5C 550.973,428.094 551.973,427.427 553.5,427.5 Z"/></g>
<g><path style="opacity:0.78" fill="#7f65e4" d="M 298.5,429.5 C 301.812,429.149 304.145,430.482 305.5,433.5C 303.938,433.267 302.605,432.6 301.5,431.5C 300.5,430.833 299.5,430.167 298.5,429.5 Z"/></g>
<g><path style="opacity:0.765" fill="#7f66e4" d="M 521.5,429.5 C 518.845,432.41 515.512,434.41 511.5,435.5C 514.457,432.95 517.79,430.95 521.5,429.5 Z"/></g>
<g><path style="opacity:0.745" fill="#c2b5f1" d="M 334.5,432.5 C 336.966,433.298 338.966,434.631 340.5,436.5C 337.853,436.071 335.853,434.738 334.5,432.5 Z"/></g>
<g><path style="opacity:0.784" fill="#a190eb" d="M 305.5,433.5 C 307.027,433.427 308.027,434.094 308.5,435.5C 306.973,435.573 305.973,434.906 305.5,433.5 Z"/></g>
<g><path style="opacity:0.831" fill="#baadf0" d="M 547.5,431.5 C 545.566,434.058 542.899,435.391 539.5,435.5C 541.897,433.805 544.563,432.472 547.5,431.5 Z"/></g>
<g><path style="opacity:0.804" fill="#ac9cec" d="M 539.5,436.5 C 538.329,437.345 536.995,438.011 535.5,438.5C 536.183,436.824 537.517,436.157 539.5,436.5 Z"/></g>
<g><path style="opacity:0.878" fill="#785ee2" d="M 314.5,438.5 C 317.639,438.599 319.973,439.932 321.5,442.5C 319.289,441.877 317.289,440.877 315.5,439.5C 314.833,439.5 314.5,439.167 314.5,438.5 Z"/></g>
<g><path style="opacity:0.882" fill="#d8d1f5" d="M 344.5,438.5 C 347.639,438.599 349.973,439.932 351.5,442.5C 348.683,441.905 346.35,440.572 344.5,438.5 Z"/></g>
<g><path style="opacity:0.725" fill="#a796eb" d="M 502.5,440.5 C 501.329,441.345 499.995,442.011 498.5,442.5C 499.183,440.824 500.517,440.157 502.5,440.5 Z"/></g>
<g><path style="opacity:0.761" fill="#a896ec" d="M 532.5,440.5 C 531.329,441.345 529.995,442.011 528.5,442.5C 529.183,440.824 530.517,440.157 532.5,440.5 Z"/></g>
<g><path style="opacity:0.89" fill="#d3cbf4" d="M 351.5,442.5 C 355.079,442.776 357.746,444.443 359.5,447.5C 356.489,446.331 353.822,444.664 351.5,442.5 Z"/></g>
<g><path style="opacity:0.831" fill="#d8d1f5" d="M 315.5,439.5 C 317.289,440.877 319.289,441.877 321.5,442.5C 321.842,443.338 322.508,443.672 323.5,443.5C 323.5,443.833 323.5,444.167 323.5,444.5C 320.996,443.361 318.33,442.694 315.5,442.5C 315.5,441.5 315.5,440.5 315.5,439.5 Z"/></g>
<g><path style="opacity:0.792" fill="#8870e6" d="M 323.5,444.5 C 323.5,444.167 323.5,443.833 323.5,443.5C 325.027,443.427 326.027,444.094 326.5,445.5C 325.391,445.443 324.391,445.11 323.5,444.5 Z"/></g>
<g><path style="opacity:0.824" fill="#8871e6" d="M 524.5,444.5 C 523.71,445.401 522.71,446.068 521.5,446.5C 521.821,444.952 522.821,444.285 524.5,444.5 Z"/></g>
<g><path style="opacity:0.741" fill="#baadef" d="M 494.5,444.5 C 493.101,445.89 491.434,446.89 489.5,447.5C 490.401,445.273 492.067,444.273 494.5,444.5 Z"/></g>
<g><path style="opacity:0.851" fill="#ccc2f3" d="M 323.5,444.5 C 324.391,445.11 325.391,445.443 326.5,445.5C 327.833,446.167 329.167,446.833 330.5,447.5C 330.5,447.833 330.5,448.167 330.5,448.5C 327.626,447.903 325.292,446.569 323.5,444.5 Z"/></g>
<g><path style="opacity:0.843" fill="#ccc2f3" d="M 359.5,447.5 C 363.168,448.061 366.168,449.728 368.5,452.5C 365.144,451.389 362.144,449.723 359.5,447.5 Z"/></g>
<g><path style="opacity:0.871" fill="#866fe5" d="M 489.5,447.5 C 488.656,449.759 486.989,450.759 484.5,450.5C 486.045,449.36 487.712,448.36 489.5,447.5 Z"/></g>
<g><path style="opacity:0.831" fill="#bdb0f0" d="M 517.5,449.5 C 516.329,450.345 514.995,451.011 513.5,451.5C 514.183,449.824 515.517,449.157 517.5,449.5 Z"/></g>
<g><path style="opacity:0.91" fill="#795ee2" d="M 330.5,448.5 C 330.5,448.167 330.5,447.833 330.5,447.5C 333.441,448.82 336.441,450.153 339.5,451.5C 340.298,451.957 340.631,452.624 340.5,453.5C 337.167,451.833 333.833,450.167 330.5,448.5 Z"/></g>
<g><path style="opacity:0.855" fill="#d8d0f6" d="M 481.5,451.5 C 481.5,451.833 481.5,452.167 481.5,452.5C 479.668,453.248 478.001,454.248 476.5,455.5C 476.787,452.516 478.454,451.183 481.5,451.5 Z"/></g>
<g><path style="opacity:0.839" fill="#836be4" d="M 484.5,450.5 C 484.179,452.048 483.179,452.715 481.5,452.5C 481.5,452.167 481.5,451.833 481.5,451.5C 482.609,451.443 483.609,451.11 484.5,450.5 Z"/></g>
<g><path style="opacity:0.839" fill="#ab99ec" d="M 513.5,451.5 C 512.329,452.345 510.995,453.011 509.5,453.5C 510.183,451.824 511.517,451.157 513.5,451.5 Z"/></g>
<g><path style="opacity:0.886" fill="#d8d1f5" d="M 370.5,453.5 C 374.168,454.061 377.168,455.728 379.5,458.5C 376.144,457.389 373.144,455.723 370.5,453.5 Z"/></g>
<g><path style="opacity:0.757" fill="#9e8ceb" d="M 476.5,455.5 C 474.955,456.64 473.288,457.64 471.5,458.5C 472.344,456.241 474.011,455.241 476.5,455.5 Z"/></g>
<g><path style="opacity:0.78" fill="#a795eb" d="M 508.5,453.5 C 507.147,455.738 505.147,457.071 502.5,457.5C 504.034,455.631 506.034,454.298 508.5,453.5 Z"/></g>
<g><path style="opacity:0.788" fill="#c3b7f1" d="M 502.5,457.5 C 502.027,458.906 501.027,459.573 499.5,459.5C 499.973,458.094 500.973,457.427 502.5,457.5 Z"/></g>
<g><path style="opacity:0.812" fill="#8670e6" d="M 349.5,458.5 C 351.027,458.427 352.027,459.094 352.5,460.5C 350.973,460.573 349.973,459.906 349.5,458.5 Z"/></g>
<g><path style="opacity:0.729" fill="#9784ea" d="M 352.5,460.5 C 354.027,460.427 355.027,461.094 355.5,462.5C 353.973,462.573 352.973,461.906 352.5,460.5 Z"/></g>
<g><path style="opacity:0.733" fill="#b6a8ef" d="M 382.5,460.5 C 384.027,460.427 385.027,461.094 385.5,462.5C 383.973,462.573 382.973,461.906 382.5,460.5 Z"/></g>
<g><path style="opacity:0.71" fill="#7e65e4" d="M 471.5,458.5 C 469.879,460.942 467.546,462.275 464.5,462.5C 464.5,462.167 464.5,461.833 464.5,461.5C 466.945,460.688 469.278,459.688 471.5,458.5 Z"/></g>
<g><path style="opacity:0.863" fill="#866fe5" d="M 498.5,459.5 C 496.65,461.572 494.317,462.905 491.5,463.5C 492.348,461.907 493.681,460.74 495.5,460C 496.448,459.517 497.448,459.351 498.5,459.5 Z"/></g>
<g><path style="opacity:0.871" fill="#cbc1f2" d="M 355.5,462.5 C 357.122,463.122 358.455,464.122 359.5,465.5C 357.381,465.532 356.048,464.532 355.5,462.5 Z"/></g>
<g><path style="opacity:0.878" fill="#846be4" d="M 385.5,462.5 C 386.833,463.167 388.167,463.833 389.5,464.5C 389.5,464.833 389.5,465.167 389.5,465.5C 387.381,465.532 386.048,464.532 385.5,462.5 Z"/></g>
<g><path style="opacity:0.741" fill="#b7a9ef" d="M 389.5,465.5 C 389.5,465.167 389.5,464.833 389.5,464.5C 391.966,465.298 393.966,466.631 395.5,468.5C 393.289,467.877 391.289,466.877 389.5,465.5 Z"/></g>
<g><path style="opacity:0.788" fill="#b7a9ef" d="M 464.5,461.5 C 464.5,461.833 464.5,462.167 464.5,462.5C 461.172,464.166 457.838,465.832 454.5,467.5C 457.242,464.579 460.575,462.579 464.5,461.5 Z"/></g>
<g><path style="opacity:0.847" fill="#cac1f2" d="M 360.5,465.5 C 361.71,465.932 362.71,466.599 363.5,467.5C 361.821,467.715 360.821,467.048 360.5,465.5 Z"/></g>
<g><path style="opacity:0.851" fill="#c2b7f1" d="M 488.5,465.5 C 487.817,467.176 486.483,467.843 484.5,467.5C 485.671,466.655 487.005,465.989 488.5,465.5 Z"/></g>
<g><path style="opacity:0.831" fill="#c7bbf2" d="M 395.5,468.5 C 397.483,468.157 398.817,468.824 399.5,470.5C 398.005,470.011 396.671,469.345 395.5,468.5 Z"/></g>
<g><path style="opacity:0.851" fill="#836be5" d="M 369.5,470.5 C 372.639,470.599 374.973,471.932 376.5,474.5C 375.833,474.167 375.167,473.833 374.5,473.5C 372.566,472.89 370.899,471.89 369.5,470.5 Z"/></g>
<g><path style="opacity:0.831" fill="#cec5f3" d="M 399.5,470.5 C 402.639,470.599 404.973,471.932 406.5,474.5C 403.683,473.905 401.35,472.572 399.5,470.5 Z"/></g>
<g><path style="opacity:0.769" fill="#856de5" d="M 453.5,468.5 C 453.047,469.458 452.381,470.292 451.5,471C 449.58,472.122 447.58,472.956 445.5,473.5C 447.689,471.1 450.356,469.433 453.5,468.5 Z"/></g>
<g><path style="opacity:0.698" fill="#c0b4f1" d="M 482.5,469.5 C 480.434,471.199 478.1,472.532 475.5,473.5C 477.121,471.058 479.454,469.725 482.5,469.5 Z"/></g>
<g><path style="opacity:0.808" fill="#c0b5f1" d="M 442.5,474.5 C 441.71,475.401 440.71,476.068 439.5,476.5C 439.821,474.952 440.821,474.285 442.5,474.5 Z"/></g>
<g><path style="opacity:0.827" fill="#8c76e7" d="M 472.5,474.5 C 471.71,475.401 470.71,476.068 469.5,476.5C 469.821,474.952 470.821,474.285 472.5,474.5 Z"/></g>
<g><path style="opacity:0.769" fill="#c8bdf2" d="M 406.5,474.5 C 410.168,475.061 413.168,476.728 415.5,479.5C 412.144,478.389 409.144,476.723 406.5,474.5 Z"/></g>
<g><path style="opacity:0.835" fill="#d5cef5" d="M 374.5,473.5 C 375.167,473.833 375.833,474.167 376.5,474.5C 378.456,475.492 380.456,476.492 382.5,477.5C 382.5,477.833 382.5,478.167 382.5,478.5C 380.099,477.951 377.765,477.118 375.5,476C 374.748,475.329 374.414,474.496 374.5,473.5 Z"/></g>
<g><path style="opacity:0.745" fill="#b1a1ed" d="M 438.5,476.5 C 438.027,477.906 437.027,478.573 435.5,478.5C 435.973,477.094 436.973,476.427 438.5,476.5 Z"/></g>
<g><path style="opacity:0.851" fill="#856ee5" d="M 382.5,478.5 C 382.5,478.167 382.5,477.833 382.5,477.5C 384.027,477.427 385.027,478.094 385.5,479.5C 384.391,479.443 383.391,479.11 382.5,478.5 Z"/></g>
<g><path style="opacity:0.824" fill="#c6bcf2" d="M 435.5,478.5 C 434.71,479.401 433.71,480.068 432.5,480.5C 432.821,478.952 433.821,478.285 435.5,478.5 Z"/></g>
<g><path style="opacity:0.843" fill="#8067e4" d="M 468.5,476.5 C 466.795,478.192 464.795,479.525 462.5,480.5C 463.446,477.687 465.446,476.354 468.5,476.5 Z"/></g>
<g><path style="opacity:0.769" fill="#9682e8" d="M 385.5,479.5 C 387.027,479.427 388.027,480.094 388.5,481.5C 386.973,481.573 385.973,480.906 385.5,479.5 Z"/></g>
<g><path style="opacity:0.741" fill="#baacf0" d="M 415.5,479.5 C 419.043,481.236 422.709,482.569 426.5,483.5C 425.054,484.613 423.387,484.78 421.5,484C 418.986,483.119 416.986,481.619 415.5,479.5 Z"/></g>
<g><path style="opacity:0.737" fill="#9985e9" d="M 461.5,480.5 C 461.027,481.906 460.027,482.573 458.5,482.5C 458.973,481.094 459.973,480.427 461.5,480.5 Z"/></g>
<g><path style="opacity:0.871" fill="#c6bcf2" d="M 388.5,481.5 C 390.288,482.36 391.955,483.36 393.5,484.5C 391.011,484.759 389.344,483.759 388.5,481.5 Z"/></g>
<g><path style="opacity:0.867" fill="#8269e5" d="M 395.5,485.5 C 398.639,485.599 400.973,486.932 402.5,489.5C 399.683,488.905 397.35,487.572 395.5,485.5 Z"/></g>
<g><path style="opacity:0.851" fill="#d5cdf5" d="M 458.5,483.5 C 457.33,485.279 455.664,486.279 453.5,486.5C 453.5,486.167 453.5,485.833 453.5,485.5C 454.779,484.032 456.446,483.365 458.5,483.5 Z"/></g>
<g><path style="opacity:0.769" fill="#b5a5ee" d="M 453.5,485.5 C 453.5,485.833 453.5,486.167 453.5,486.5C 451.711,487.877 449.711,488.877 447.5,489.5C 449.034,487.631 451.034,486.298 453.5,485.5 Z"/></g>
<g><path style="opacity:0.792" fill="#a391eb" d="M 447.5,489.5 C 446.329,490.345 444.995,491.011 443.5,491.5C 444.183,489.824 445.517,489.157 447.5,489.5 Z"/></g>
<g><path style="opacity:0.851" fill="#937de8" d="M 443.5,491.5 C 441.65,493.572 439.317,494.905 436.5,495.5C 437.348,493.907 438.681,492.74 440.5,492C 441.448,491.517 442.448,491.351 443.5,491.5 Z"/></g>
<g><path style="opacity:0.933" fill="#e0daf7" d="M 406.5,492.5 C 409.856,493.611 412.856,495.277 415.5,497.5C 412.436,497.072 409.436,496.406 406.5,495.5C 406.5,494.5 406.5,493.5 406.5,492.5 Z"/></g>
<g><path style="opacity:0.763" fill="#917be8" d="M 418.5,498.5 C 420.882,500.046 423.549,500.713 426.5,500.5C 425.432,501.434 424.099,501.768 422.5,501.5C 420.596,501.262 419.262,500.262 418.5,498.5 Z"/></g>
<g><path style="opacity:0.825" fill="#6" d="M 433.5,497.5 C 433.279,498.735 432.612,499.735 431.5,500.5C 429.395,501.636 427.228,502.636 425,503.5C 423.624,503.316 422.791,502.649 422.5,501.5C 424.099,501.768 425.432,501.434 426.5,500.5C 428.722,499.312 431.055,498.312 433.5,497.5 Z"/></g>
</svg>
