<?xml version="1.0" standalone="no"?>
<!DOCTYPE svg PUBLIC "-//W3C//DTD SVG 20010904//EN"
 "http://www.w3.org/TR/2001/REC-SVG-20010904/DTD/svg10.dtd">
<svg version="1.0" xmlns="http://www.w3.org/2000/svg"
 width="1600.000000pt" height="1037.000000pt" viewBox="0 0 1500.000000 937.000000"
 preserveAspectRatio="xMidYMid meet">

<g transform="translate(0.000000,937.000000) scale(0.100000,-0.100000)"
fill="#000000" stroke="none">
<path d="M7390 8806 c-58 -34 -213 -125 -345 -201 -132 -76 -292 -168 -355
-205 -63 -37 -223 -129 -355 -205 -132 -76 -339 -196 -460 -266 -232 -134
-566 -327 -1452 -838 l-543 -314 0 -2092 0 -2092 543 -314 c886 -511 1220
-704 1452 -838 121 -70 328 -190 460 -266 132 -76 292 -168 355 -205 63 -37
223 -129 355 -205 132 -76 288 -166 347 -201 l107 -63 1213 701 c667 385 1319
761 1448 836 129 74 287 165 350 202 63 37 226 131 363 209 l247 143 0 2093 0
2093 -247 143 c-137 78 -300 172 -363 209 -63 37 -221 128 -350 202 -129 75
-781 451 -1449 837 -668 386 -1215 701 -1215 700 -1 0 -48 -29 -106 -63z m308
-354 c103 -60 351 -203 552 -319 201 -116 856 -495 1457 -842 601 -346 1106
-637 1123 -646 l30 -16 0 -1944 0 -1944 -30 -16 c-17 -9 -522 -300 -1123 -646
-601 -347 -1256 -726 -1457 -842 -201 -116 -449 -259 -552 -319 -103 -59 -192
-108 -197 -108 -6 0 -359 201 -784 446 -424 245 -862 498 -972 561 -110 64
-272 158 -360 209 -88 50 -257 148 -375 216 -118 68 -362 209 -542 313 l-328
189 0 1941 0 1941 458 264 c521 301 576 333 987 570 165 95 361 208 435 251
74 43 434 251 800 463 366 212 671 385 678 385 7 1 97 -48 200 -107z"/>
<path d="M5950 5162 c0 -952 -1 -992 -20 -1066 -51 -199 -177 -319 -397 -377
-148 -39 -413 -36 -572 6 l-50 13 -10 -52 c-23 -111 -71 -375 -71 -389 0 -16
134 -49 275 -68 132 -17 463 -6 583 20 232 50 388 125 507 245 123 123 189
247 238 445 21 84 21 107 24 1149 l4 1062 -256 0 -255 0 0 -988z"/>
<path d="M7490 4700 l0 -1452 608 5 c638 5 719 10 953 57 675 138 1070 612
1118 1340 36 550 -144 973 -523 1225 -179 119 -391 197 -671 247 -114 21 -157
22 -802 25 l-683 4 0 -1451z m1420 956 c247 -58 508 -235 619 -420 94 -157
136 -344 128 -566 -7 -163 -26 -260 -79 -385 -62 -146 -146 -253 -273 -348
-104 -77 -195 -122 -308 -152 -184 -49 -270 -57 -639 -62 l-348 -5 0 982 0
982 413 -5 c345 -3 424 -7 487 -21z"/>
</g>
</svg>
